<svg xmlns="http://www.w3.org/2000/svg" width="244.688" height="297.518" viewBox="0 0 244.688 297.518"><g fill="#B48A6D"><path d="M201.562 36.735l-4.697 8.036c24.685 4.836 38.814 11.554 39.003 16.933l-.124 1.05c-2.753 9.481-46.333 22.453-113.398 22.453S11.698 72.236 8.945 62.754l-.126-1.059c.359-9.534 44.498-23.275 113.525-23.275 22.852 0 42.96 1.509 59.67 3.871l-17.704 30.3c-5.762.287-11.644.484-17.638.676a722.51 722.51 0 0 1-21.668.306c-.231.001-.462-.002-.693 0l-1.272-8.546-1.272 8.546a741.244 741.244 0 0 1-18.433-.15c-7.145-.186-14.18-.318-20.977-.652-1.713-.08-3.411-.164-5.094-.253l-2.369-18.189-.121 18.049c-10.717-.604-20.721-1.411-29.461-2.526-5.384-.703-10.297-1.496-14.563-2.505-2.127-.517-4.09-1.093-5.839-1.753-1.692-.688-3.342-1.469-4.092-2.592-.875-1.099-.002-2.375.893-3.123.898-.788 1.827-1.303 2.57-1.708 1.507-.791 2.362-1.121 2.362-1.121s-.882.233-2.483.861c-.795.329-1.783.736-2.842 1.473-.519.376-1.08.834-1.486 1.552-.088.186-.182.373-.236.619-.061.279-.087.325-.07.648l.102.699c.061.225.188.417.286.633.944 1.641 2.644 2.532 4.377 3.458 1.776.879 3.771 1.596 5.912 2.3 4.293 1.372 9.22 2.552 14.633 3.554 5.409 1.035 11.3 1.941 17.552 2.673 6.249.755 12.853 1.425 19.697 1.895 6.843.471 13.919.918 21.116 1.107 7.198.216 14.514.331 21.823.33a729.94 729.94 0 0 0 21.821-.492c7.196-.252 14.271-.752 21.11-1.294 6.842-.535 13.44-1.283 19.684-2.117 6.244-.835 12.125-1.842 17.518-3.021 5.39-1.18 10.304-2.506 14.497-4.369a17.027 17.027 0 0 0 1.53-.745c.5-.249.982-.531 1.443-.848.933-.618 1.785-1.267 2.414-2.424.146-.306.305-.644.298-.846l.048-.348.012-.086.006-.043c.002.015.019-.269.008-.177l-.031-.231c-.07-.624-.371-1.134-.686-1.535-.653-.8-1.415-1.283-2.131-1.706-2.926-1.553-5.41-2.056-7.062-2.503-1.668-.402-2.562-.572-2.562-.572s.875.268 2.48.845c1.581.596 3.998 1.447 6.59 3.117 1.205.839 2.653 2.189 1.652 3.442-.346.497-1.126 1.129-1.965 1.562-.414.243-.86.463-1.342.658-.461.217-.953.403-1.464.581-4.06 1.449-8.959 2.39-14.294 3.264-5.354.838-11.206 1.483-17.403 2.085-4.636.427-9.474.767-14.455 1.081l36.487-62.44c2.009-.638 3.475-2.495 3.475-4.716a4.97 4.97 0 0 0-9.938 0c0 .498.095.969.23 1.422l-16.189 27.705c-19.506-2.964-42.023-4.479-64.459-4.479C61.546 29.618 0 40.677 0 61.814c0 .175.039.344.047.518l-.016.002.071.599c.033.327.052.656.115.978l15.314 128.61 4.641 7.581 10.317 67.21 53.559 30.206h76.59l53.56-30.206 10.316-67.21 4.642-7.581 15.313-128.61c.064-.322.082-.651.115-.978l.072-.599-.016-.002c.008-.174.047-.343.047-.518.001-11.28-17.536-19.689-43.125-25.079zM28.858 198.662c1.191-2.301 3.062-4.352 5.481-6.06l.224.353c.179 1.348.373 2.693.553 4.041-1.401.93-2.598 2.026-3.635 3.086-.789.897-1.465 1.791-1.994 2.68l-.629-4.1zm54.585 88.408l-44.901-25.322-8.727-56.852c.086-.125.168-.249.26-.377.691-1.011 1.693-1.981 2.803-2.975a30.917 30.917 0 0 1 2.617-1.777 3443.67 3443.67 0 0 0 3.332 24.396l4.455 31.697.182 1.285 1.127.631L64.289 268.8c6.358 3.584 12.765 7.083 19.154 10.612v7.658zm-44.946-96.834c1.936-.873 4.079-1.566 6.379-2.071.195 1.522.391 2.997.583 4.441-1.556.353-3.056.857-4.504 1.354-.452.178-.872.387-1.311.577-.14-.921-.269-1.844-.409-2.764l-.082-.544-.279-.422-.377-.571zm6.727 42.275l4.248 2.154v19.851l-1.179-.67-3.069-21.335zm7.769 24.006v-20.065l2.832 1.437-.705 19.838-2.127-1.21zm2.922-18.584l6.926 3.514h-.123v20.596l-6.068-3.447-.735-20.663zm9.443 25.61v-20.82l3.959 2.008-.742 20.646c-.595-.338-1.186-.682-1.781-1.018l-1.436-.816zm3.973-18.805l3.885 1.971v21.318a1076.61 1076.61 0 0 0-3.109-1.776l-.776-21.513zm14.112 29.171l-7.587-4.373v-21.489l.753.383-31.974-20.002-.719-4.988a3373.172 3373.172 0 0 0-3.824-25.873 76.978 76.978 0 0 1 1.871-.673c1.271-.37 2.602-.67 3.953-.926.107.774.215 1.577.32 2.321.793 5.833 1.61 10.679 2.109 14.077.535 3.396.889 5.331.889 5.331s-.043-1.967-.207-5.4c-.198-3.43-.377-8.34-.779-14.213-.051-.798-.109-1.654-.165-2.485.833-.125 1.659-.187 2.491-.268.953-.089 2.143-.064 3.065-.104 2.017.025 4.04.105 5.998.43 1.968.264 3.868.707 5.68 1.233 1.776.608 3.508 1.21 5.019 2.033 1.549.769 2.874 1.705 4.07 2.618 1.109.995 2.111 1.965 2.803 2.977.356.499.688.975.914 1.459.247.473.512.908.627 1.329l.41 1.133.185.899.154.748.034-.764.043-.916c-.024-.362-.084-.785-.148-1.266-.037-.496-.209-.992-.368-1.554-.129-.577-.407-1.14-.698-1.752-.562-1.237-1.458-2.491-2.565-3.749-1.163-1.186-2.508-2.435-4.138-3.424-1.588-1.066-3.402-1.945-5.334-2.696-1.953-.673-3.999-1.354-6.148-1.664-2.137-.394-4.337-.527-6.536-.595-1.183.058-2.108.054-3.246.168-.856.093-1.71.184-2.544.312a928.666 928.666 0 0 0-.331-4.505 42.087 42.087 0 0 1 6.122-.453c15.875 0 29.802 8.127 29.802 17.393v69.288zm74.275 14.806H86.964v-8.682c11.791-.048 23.581-.119 35.371-.257 11.795-.095 23.588-.258 35.383-.44v9.379zm0-12.339a4689.187 4689.187 0 0 0-35.372-.623 4536.271 4536.271 0 0 0-35.382-.439v-70.693c0-9.427 16.201-17.393 35.377-17.393s35.377 7.966 35.377 17.393v71.755zm48.428-14.628l-44.907 25.326v-8.531c4.274-2.331 8.5-4.76 12.754-7.133l6.919-3.896 6.87-3.988-7.281 3.179-7.233 3.273c-4.006 1.831-8.033 3.624-12.028 5.477v-70.834c0-9.266 13.927-17.393 29.803-17.393.849 0 1.681.031 2.505.078-.02.25-.035.508-.056.756a651.329 651.329 0 0 0-.26 3.743c-.714-.038-1.415-.061-2.133-.098-2.312.065-4.431.201-6.593.594-2.15.31-4.196.991-6.148 1.664-1.933.751-3.746 1.63-5.334 2.696-1.631.989-2.976 2.238-4.139 3.424-1.106 1.258-2.003 2.512-2.566 3.749-.289.612-.568 1.175-.696 1.752-.159.562-.332 1.058-.368 1.554-.064.48-.125.903-.149 1.266l.043.916.034.764s.055-.261.154-.748l.186-.899.409-1.133c.116-.421.38-.856.628-1.329.225-.484.557-.96.914-1.459.691-1.012 1.693-1.981 2.802-2.977 1.197-.913 2.522-1.85 4.07-2.618 1.511-.823 3.243-1.425 5.019-2.033 1.812-.526 3.713-.97 5.681-1.233 1.932-.325 4.038-.403 5.94-.431.667.026 1.352.036 2.022.056-.206 3.315-.38 6.461-.51 9.307-.479 9.683-.487 16.167-.487 16.167s1.188-6.374 2.5-15.979c.398-2.836.81-5.977 1.221-9.293.434.044.869.093 1.309.175 1.967.271 3.868.709 5.679 1.236.361.124.705.256 1.062.382l-.193.34-.156.276-.015.243-.415 6.564c-.139 2.189-.27 4.378-.361 6.571-.19 4.386-.451 8.764-.545 13.159.758-4.33 1.35-8.677 2.012-13.016.335-2.17.631-4.342.918-6.517l.822-6.206c.104-.161.205-.323.309-.484.537.23 1.085.45 1.582.721 1.547.768 2.871 1.705 4.068 2.617 1.109.993 2.11 1.964 2.803 2.975.094.131.176.257.266.385l-8.731 56.843zm-10.002-69.667c.145-1.228.291-2.465.435-3.731.026-.247.057-.502.085-.75 4.047.541 7.688 1.666 10.755 3.24-.72 1.265-1.435 2.532-2.15 3.799-.513-.227-1.009-.47-1.542-.678-1.952-.671-3.998-1.358-6.148-1.66a18.092 18.092 0 0 0-1.435-.22zm19.056 10.688c-.531-.891-1.209-1.787-2-2.688-1.162-1.188-2.509-2.434-4.139-3.424-.439-.297-.934-.545-1.406-.812.754-1.185 1.508-2.369 2.259-3.555 2.637 1.769 4.651 3.938 5.915 6.381l-.629 4.098zm5.442-13.203l-3.144 5.139c-1.483-2.023-3.427-3.824-5.738-5.363.64-1.021 1.285-2.037 1.917-3.062l.172-.279.045-.378c.825-6.882 1.502-13.779 2.229-20.672.639-6.901 1.336-13.796 1.875-20.707.588-6.906 1.09-13.82 1.524-20.742.231-3.459.413-6.923.565-10.39.167-3.466.345-6.93.426-10.404-.602 3.422-1.105 6.854-1.621 10.286a454.08 454.08 0 0 0-1.481 10.299 925.57 925.57 0 0 0-2.569 20.639c-.826 6.883-1.492 13.78-2.219 20.673-.627 6.792-1.301 13.579-1.836 20.38-.548.94-1.086 1.886-1.627 2.829-3.477-1.813-7.564-3.108-12.102-3.711.189-1.657.375-3.334.533-5.032l.951-9.588.831-9.6c.286-3.166.478-6.289.712-9.307.437-6.04.772-11.683.994-16.526.481-9.683.492-16.167.492-16.167s-1.184 6.375-2.495 15.98a641.45 641.45 0 0 0-2.07 16.425c-.325 3.01-.714 6.115-1.015 9.278l-.953 9.589-.833 9.6a249.065 249.065 0 0 0-.403 5.043 46.377 46.377 0 0 0-2.761-.091c-14.499 0-27.175 6.176-31.618 14.475-4.941-8.482-19.468-14.475-37.082-14.475-17.613 0-32.141 5.991-37.082 14.475-4.443-8.299-17.118-14.475-31.617-14.475a45.31 45.31 0 0 0-6.395.45 997.084 997.084 0 0 0-.504-6.128c-.329-3.663-.611-7.454-1.003-11.295l-1.13-11.652-1.25-11.64c-.4-3.84-.884-7.61-1.303-11.264a964.254 964.254 0 0 0-2.58-19.944c-.795-5.833-1.607-10.679-2.106-14.078-.534-3.396-.888-5.331-.888-5.331s.047 1.967.209 5.399c.199 3.43.383 8.34.783 14.214a956.74 956.74 0 0 0 1.505 20.054c.328 3.663.616 7.453 1.001 11.295l1.129 11.652 1.248 11.639c.393 3.842.882 7.611 1.301 11.265.256 2.156.514 4.251.771 6.308-2.857.609-5.502 1.5-7.883 2.631l-.93-1.409c-.92-7.215-1.887-14.423-2.887-21.628a2027.024 2027.024 0 0 0-3.105-22.176l-1.613-11.081-1.699-11.07-1.7-11.07c-.56-3.691-1.206-7.372-1.805-11.059.281 3.725.515 7.454.835 11.174l.94 11.161.94 11.161 1.027 11.15a2004.53 2004.53 0 0 0 2.174 22.287c.734 7.427 1.499 14.852 2.318 22.27l.057.521.304.476 1.05 1.649c-2.111 1.469-3.883 3.173-5.268 5.061l-3.141-5.133L10.488 75.711C30.605 87.771 76.684 94.01 122.345 94.01c45.66 0 91.738-6.239 111.855-18.298l-13.558 113.854z"/><path d="M133.763 252.134c-1.823-.045-3.706-.145-5.619-.151l-5.803-.062-5.803.06c-1.913.001-3.797.104-5.619.149a229.28 229.28 0 0 0-9.964.54c-5.833.419-9.722 1.011-9.722 1.011s1.982.299 5.202.621l1.703 18.277 1.675-17.977c.379.029.743.061 1.142.089 2.864.224 6.199.409 9.771.532l.717 4.803.709-4.755c1.438.05 2.898.108 4.387.108l5.803.061 5.803-.062c1.913-.006 3.796-.105 5.619-.151a234.23 234.23 0 0 0 9.964-.54c5.833-.418 9.721-1.006 9.721-1.006s-3.888-.589-9.721-1.006c-2.918-.227-6.32-.415-9.965-.541zM193.823 236.126c-1.826 1.036-3.585 2.193-4.848 3.162-1.269.956-2.037 1.73-2.037 1.73s1.06-.258 2.534-.85c1.482-.578 3.383-1.484 5.215-2.511 1.825-1.037 3.583-2.197 4.845-3.165 1.27-.955 2.039-1.728 2.039-1.728s-1.059.26-2.533.851c-1.481.582-3.383 1.485-5.215 2.511zM148.725 199.333c-1.497-1.223-3.307-2.254-5.269-3.233-1.986-.907-4.131-1.787-6.431-2.393a39.18 39.18 0 0 0-3.514-.862c-1.19-.29-2.415-.452-3.649-.619-1.227-.198-2.514-.246-3.779-.373-1.254-.083-2.461-.099-3.696-.146-2.618.055-5.077.188-7.567.52-1.234.167-2.458.336-3.649.622a39.5 39.5 0 0 0-3.513.861c-2.3.605-4.443 1.489-6.43 2.395-1.963.979-3.77 2.013-5.268 3.232-1.553 1.133-2.746 2.482-3.699 3.717a24.386 24.386 0 0 0-1.15 1.87c-.251.638-.488 1.208-.676 1.731-.262 1.124-.383 1.959-.324 2.541l.008.889s.062-.303.181-.87c.079-.276.089-.65.261-1.028l.524-1.279.897-1.463c.412-.476.815-1.012 1.306-1.529 1.044-.99 2.28-2.032 3.819-2.924 1.49-.948 3.279-1.704 5.154-2.48a51.89 51.89 0 0 1 6.164-1.805c2.168-.537 4.471-.824 6.8-1.107 2.313-.274 4.772-.357 7.07-.374 1.221.035 2.476.024 3.665.087 1.171.104 2.328.119 3.496.289 2.328.29 4.632.57 6.799 1.109a51.463 51.463 0 0 1 6.164 1.806c1.875.776 3.662 1.532 5.153 2.479 1.539.891 2.774 1.934 3.819 2.922.49.518.893 1.054 1.305 1.528.327.532.629 1.021.899 1.463l.528 1.296c.172.379.18.734.258 1.011l.182.87s.002-.31.009-.89c.058-.596-.07-1.442-.325-2.542-.186-.521-.422-1.094-.675-1.73a23.66 23.66 0 0 0-1.148-1.871c-.952-1.237-2.148-2.585-3.699-3.72zM182.397 148.869s.768-3.148 1.451-7.898c.361-2.374.705-5.146.992-8.123.128-1.489.318-3.024.405-4.59l.324-4.745.202-4.75c.08-1.566.067-3.113.104-4.607.04-2.99.009-5.784-.085-8.183-.152-4.796-.562-8.01-.562-8.01s-.766 3.149-1.447 7.898a158.395 158.395 0 0 0-.993 8.123c-.129 1.489-.313 3.025-.407 4.591l-.325 4.744c-.069 1.592-.138 3.184-.204 4.751-.088 1.565-.068 3.113-.107 4.606-.043 2.99-.01 5.784.086 8.183.152 4.795.566 8.01.566 8.01z"/></g></svg>