<svg xmlns="http://www.w3.org/2000/svg" width="214.966" height="322.951" viewBox="0 0 214.966 322.951"><g fill="#B48A6D"><path d="M192.657 295.706l-.023-.137-.045-.273-.09-.546-.046-.271-.127-.429-.284-.848-.322-.821c-.118-.226-.244-.415-.367-.621-.252-.397-.492-.814-.762-1.174-1.125-1.371-2.326-2.499-3.585-3.322-2.492-1.706-4.958-2.836-7.297-3.738-4.669-1.82-8.86-2.697-12.29-3.406-3.439-.666-6.163-.998-8.014-1.228l-2.845-.301 2.724.864c1.777.54 4.354 1.441 7.6 2.585 3.215 1.21 7.112 2.761 11.215 4.967 2.041 1.104 4.117 2.444 5.901 4.053a13.026 13.026 0 0 1 2.243 2.57c.132.225.211.451.326.67l.158.321a1 1 0 0 0 .098.393l.05.092.017.274.034.552.016.25c-.007-.1-.013-.17-.008-.036-.063 1.451-1.748 3.262-4.045 4.743-2.341 1.472-5.148 2.758-8.169 3.825-6.065 2.143-12.923 3.562-20.034 4.807-7.132 1.229-14.631 1.92-22.25 2.534-7.642.537-15.391.867-23.207.88a293.585 293.585 0 0 1-23.212-.592c-7.632-.541-15.146-1.118-22.313-2.226-7.156-1.11-14.051-2.377-20.275-4.277-3.104-.943-6.049-2.053-8.649-3.344-2.589-1.269-4.896-2.86-6.028-4.527a8.673 8.673 0 0 0-.355-.605 1.025 1.025 0 0 0-.189-.35c-.069-.252-.109-.668-.164-.998l.008-.119.004-.299c.087-.8.402-1.709 1.047-2.595 1.215-1.797 3.189-3.312 5.082-4.554 3.889-2.452 7.723-4.17 10.896-5.459 3.198-1.267 5.751-2.204 7.517-2.795l2.707-.919-2.836.361c-1.839.282-4.57.66-7.982 1.461-3.412.808-7.578 1.852-12.166 4.021-2.272 1.129-4.734 2.433-6.954 4.846a10.016 10.016 0 0 0-2.526 4.796l-.111.764-.048.386-.022.193.015.395c.024.38.014.675.066 1.13a16.8 16.8 0 0 0 .419 1.754l.601 1.391c1.913 3.498 4.817 5.643 7.739 7.533 2.965 1.877 6.178 3.267 9.486 4.574 6.635 2.557 13.77 4.504 21.23 5.912 3.725.729 7.525 1.358 11.381 1.893 3.854.549 7.765 1.013 11.718 1.299 7.903.634 15.933.96 23.986.966 8.011-.061 16.088-.425 23.97-1.208 7.9-.734 15.633-1.984 23.076-3.553 7.445-1.562 14.57-3.644 21.155-6.529 3.281-1.469 6.462-3.106 9.34-5.351 1.423-1.166 2.786-2.469 3.925-4.109 1.132-1.607 2.008-3.771 1.928-6.017.018.251-.021-.461-.021-.409l-.017-.069z"/><path d="M173.479 295.527c-1.356.562-2.944.993-4.62 1.428-1.686.42-3.492.778-5.363 1.148-1.873.368-3.829.661-5.81 1-1.983.331-4.008.62-6.035.896-2.023.302-4.053.576-6.054.832l-5.878.754-10.446 1.31-7.408.97c-1.791.256-2.812.43-2.812.43s1.034.067 2.842.139c1.803.071 4.393.154 7.492.101a170.2 170.2 0 0 0 10.58-.44c1.932-.15 3.932-.285 5.954-.518 2.024-.228 4.079-.467 6.132-.746a202.79 202.79 0 0 0 6.104-1.007c2.013-.356 3.976-.813 5.874-1.264 1.9-.447 3.717-.989 5.428-1.562 1.713-.573 3.311-1.206 4.734-1.997.709-.39 1.384-.823 1.971-1.365.293-.28.555-.594.771-.984.094-.226.219-.54.217-.691l.012-.241.004-.06c.007-.199-.006-.104-.009-.172l-.032-.169c-.26-.896-.893-1.279-1.379-1.573a8.392 8.392 0 0 0-1.436-.615c-.875-.296-1.582-.418-2.06-.515l-.732-.13.689.278c.445.183 1.097.475 1.878.886a7.69 7.69 0 0 1 1.198.779c.38.308.759.732.771 1.089.064.689-1.278 1.475-2.577 2.009zM43.715 290.534c-.837.629-1.276 1.035-1.276 1.035l1.447-.762c.922-.479 2.266-1.102 3.883-1.818 1.625-.702 3.521-1.504 5.593-2.256 1.025-.404 2.111-.747 3.204-1.125 1.083-.401 2.223-.697 3.34-1.052 2.248-.684 4.529-1.241 6.673-1.757l3.112-.662c.988-.229 1.938-.354 2.809-.527.873-.141 1.669-.342 2.384-.433l1.851-.282c1.028-.162 1.617-.279 1.617-.279s-.594-.031-1.638-.045l-1.886-.014c-.731-.025-1.549.046-2.443.1-.895.07-1.872.088-2.888.249-1.019.139-2.101.253-3.206.452-1.101.225-2.25.41-3.397.685-1.141.304-2.312.573-3.462.914-1.138.38-2.295.702-3.396 1.13-1.115.393-2.19.832-3.221 1.285a48.409 48.409 0 0 0-5.48 2.769c-1.56.896-2.77 1.789-3.62 2.393zM73.836 206.275c-4.093 2.925-4.938 7.935-4.938 7.935s7.443-1.528 8.91-2.625a3.316 3.316 0 0 0-3.972-5.31zM107.675 230.249c-6.072.023-12.145.553-16.698 1.355-4.554.752-7.591 1.812-7.591 1.812s3.037 1.061 7.591 1.812c4.554.803 10.626 1.333 16.698 1.355 6.072-.02 12.145-.541 16.699-1.348 4.554-.754 7.59-1.82 7.59-1.82s-3.036-1.066-7.59-1.82c-4.555-.805-10.627-1.327-16.699-1.346zM118.063 265.96H97.286c1.678 2.134 5.691 3.639 10.389 3.639 4.698 0 8.712-1.505 10.388-3.639zM97.078 281.565a138.5 138.5 0 0 0-1.587 6.029c-.395 1.687-.58 2.889-.58 2.889s.906-.832 1.882-2.323c.968-1.489 2.085-3.603 2.717-5.896.677-2.28.857-4.699.726-6.493-.119-1.802-.578-2.949-.578-2.949s-.359 1.167-.84 2.809c-.465 1.65-1.132 3.781-1.74 5.934zM92.999 108.689c-1.092-.626-2.279-1.188-3.635-1.446a13.435 13.435 0 0 0-1.939-.235 12.513 12.513 0 0 0-2.092.077c-2.711.395-5.252 1.721-6.951 3.556-1.751 1.794-2.711 3.967-3.057 5.835-.211.93-.229 1.795-.182 2.58.012.811.158 1.296.244 1.914.316.983.555 1.542.555 1.542s.128-.583.252-1.597c.116-.379.227-1.124.484-1.691.224-.598.541-1.285.901-1.976 1.406-2.798 4.588-5.614 8.31-6.032.432-.074.977-.104 1.332-.113a8.814 8.814 0 0 1 1.447.107c.863.166 1.785.357 2.604.721a12.202 12.202 0 0 1 4.1 2.992c1.035 1.169 1.82 2.351 2.201 3.264.42.931.658 1.463.658 1.463s.147-.585.133-1.644c-.045-1.037-.141-2.641-.974-4.37-.771-1.743-2.239-3.622-4.391-4.947zM129.587 107.076c-1.205-.122-2.683-.118-3.967.173-1.319.259-2.532.818-3.616 1.444-2.15 1.327-3.618 3.204-4.39 4.945-.832 1.734-.928 3.319-.979 4.378-.012 1.054.165 1.627.133 1.633l.659-1.475c.376-.892 1.16-2.09 2.196-3.255a12.12 12.12 0 0 1 4.103-2.994c.825-.362 1.723-.556 2.621-.721.935-.159 1.779-.127 2.845.021.765.059 1.776.359 2.584.72.838.378 1.652.828 2.359 1.395 1.442 1.111 2.529 2.53 3.279 3.91.729 1.373 1.209 2.737 1.39 3.665.124 1.014.253 1.597.253 1.597s.24-.558.557-1.542c.179-1.066.463-2.608.066-4.496-.546-3.737-4.285-8.693-10.093-9.398zM143.483 210.365c-.4-.881-.787-1.649-1.463-2.556l-.566-.76-1.359.297c-2.307.502-4.489 1.29-6.816 1.609-2.26.541-4.57.846-6.875 1.147-1.139.227-2.312.264-3.467.401-1.16.111-2.314.253-3.484.271-2.326.172-4.66.296-7.006.297-9.387.13-18.817-.522-28.521-1.396 4.391 2.192 9.102 3.611 13.869 4.726 2.398.471 4.809.982 7.252 1.241 2.437.294 4.895.529 7.36.577 2.466.054 4.938.041 7.411-.139 1.236-.057 2.467-.24 3.698-.394 1.229-.18 2.466-.26 3.685-.533 2.439-.495 4.859-1.058 7.232-1.834 1.984-.573 6.11-1.781 6.254-1.543.371.642.705 1.317.955 2.024.494 1.413.808 2.928.742 4.484-.104 1.541-.391 3.131-1.001 4.648-.589 1.524-1.399 2.989-2.323 4.414 1.211-1.171 2.422-2.411 3.33-3.904.959-1.462 1.635-3.136 2.02-4.914a13.333 13.333 0 0 0-.061-5.5c-.199-.908-.5-1.797-.866-2.663z"/><path d="M214.966 54.584c0-12.018-20.747-18.913-38.154-22.582a.76.76 0 0 0-.811.361l-4.09 6.996a.757.757 0 0 0 .51 1.127c22.728 4.458 33.217 10.396 33.351 13.912a4.38 4.38 0 0 1-1.712 3.103l-1.307.993c-10.875 7.801-47.024 15.697-95.07 15.697-49.631 0-83.911-8.025-94.777-15.492-1.354-.888-2.24-1.78-2.723-2.668l-.285-.704c-.054-.19-.131-.381-.145-.57a.719.719 0 0 0-.029-.151c-.02-.242-.031-1.203.918-2.207.539-.663 1.332-1.333 2.368-2.003 10.93-7.427 45.22-15.422 94.673-15.422 18.163 0 35.225 1.078 50.725 3.206L143.344 64c-4.741.229-9.56.397-14.48.555-6.22.184-12.544.271-18.866.266-.202.002-.402-.001-.604 0l-1.107-7.44-1.108 7.441a642.231 642.231 0 0 1-16.05-.131c-6.221-.161-12.346-.276-18.264-.567-1.492-.07-2.971-.143-4.436-.221l-2.062-15.838-.105 15.716c-9.331-.526-18.042-1.229-25.652-2.199-4.688-.612-8.966-1.303-12.68-2.182-1.852-.449-3.562-.951-5.084-1.526-1.474-.599-2.909-1.279-3.563-2.257-.761-.956-.001-2.068.777-2.719.782-.686 1.591-1.134 2.237-1.486 1.312-.688 2.058-.977 2.058-.977s-.769.203-2.163.75c-.691.286-1.553.641-2.474 1.282-.451.328-.94.727-1.294 1.352-.077.162-.158.324-.206.538-.053.243-.075.284-.062.565l.09.608c.052.196.162.364.248.551.822 1.429 2.302 2.204 3.812 3.011 1.546.766 3.282 1.39 5.147 2.002 3.738 1.195 8.027 2.223 12.741 3.095 4.71.9 9.839 1.689 15.282 2.327 5.441.656 11.189 1.24 17.149 1.649 5.958.411 12.12.8 18.387.964 6.269.188 12.638.289 19.001.287 6.367-.049 12.735-.19 19-.428 6.267-.22 12.426-.654 18.381-1.127 5.957-.466 11.702-1.117 17.139-1.843 5.438-.728 10.558-1.604 15.252-2.631 4.693-1.028 8.973-2.183 12.623-3.806.457-.198.903-.406 1.333-.648.436-.216.854-.462 1.256-.737.812-.538 1.555-1.103 2.103-2.11.127-.267.266-.561.259-.737l.042-.304.01-.075.006-.037c.001.013.016-.234.007-.154l-.026-.202c-.062-.543-.324-.987-.598-1.336-.569-.696-1.232-1.118-1.856-1.485-2.548-1.353-4.71-1.79-6.148-2.18-1.452-.351-2.231-.499-2.231-.499s.762.234 2.16.736c1.377.52 3.48 1.26 5.738 2.715 1.049.73 2.311 1.905 1.438 2.996-.302.433-.98.984-1.711 1.36-.36.211-.749.403-1.168.572-.401.188-.831.352-1.274.507-3.534 1.262-7.802 2.08-12.447 2.842-4.66.729-9.756 1.291-15.152 1.815-3.734.343-7.646.614-11.643.87l31.34-53.672c2.309-.878 3.639-3.222 3.182-5.691-.371-2.018-2.039-3.679-4.057-4.039-3.212-.594-6.025 1.886-6.025 5.001 0 .363.047.734.145 1.128l-13.675 23.404c-16.705-2.507-35.959-3.83-55.729-3.83-27.299 0-54.012 2.602-73.29 7.136-15.111 3.554-25.84 8.142-31.169 13.522C.187 49.518-.764 54.09.626 58.181l51.109 126.298c1.443 3.795 4.629 6.91 8.945 9.44 1.068.626 1.343 2.066.548 3.017-4.784 5.722-7.354 12.266-7.354 19.084 0 8.496 4.031 16.341 10.816 22.652 4.422 4.113 8.098 8.961 11.257 14.107l9.284 15.128c-1.067 13.278-7.008 20.676-7.072 20.752l.011.01-.622.886a1.406 1.406 0 0 0 .557 2.082l.155.09c1.362.777 12.001 6.56 24.871 5.314 0 0-1.658-.19-4.055-.724-2.401-.486-5.509-1.5-8.306-2.938a26.348 26.348 0 0 1-3.419-2.113c2.544-4.199 6.456-12.413 7.076-24.308a4.508 4.508 0 0 0-.669-2.581l-6.67-10.868c-.707-1.152.35-2.564 1.656-2.216 5.893 1.57 12.265 2.451 18.936 2.451 6.665 0 13.032-.879 18.922-2.448 1.307-.348 2.363 1.064 1.656 2.217l-6.667 10.864a4.574 4.574 0 0 0-.668 2.623c.917 17.367 8.93 27.096 9.271 27.502l7.521-1.338c1.27-.226 1.812-1.754.951-2.714a27.4 27.4 0 0 1-1.477-1.791c-.063-.076-6.004-7.474-7.072-20.752l9.27-15.104c3.165-5.156 6.85-10.01 11.28-14.129 6.788-6.312 10.821-14.158 10.821-22.654 0-6.967-2.7-13.642-7.691-19.45a2.03 2.03 0 0 1 .502-3.066c4.586-2.729 7.812-5.94 9.287-9.528l49.916-122.982a20.463 20.463 0 0 0 1.464-6.41zM107.681 244.078c-23.927 0-44.141-12.849-44.141-28.058 0-5.164 2.342-10.236 6.695-14.664 1.371-1.395 3.418-1.891 5.299-1.352 9.009 2.58 20.379 4.022 32.146 4.022s23.137-1.442 32.146-4.022c1.881-.539 3.929-.043 5.3 1.353 4.353 4.429 6.695 9.499 6.695 14.663.001 15.209-20.213 28.058-44.14 28.058zm-2.129-67.278c.148 8.071-5.105 14.697-12.219 15.414-6.84.722-13.254-4.578-14.888-11.845l-7.056-58.117c-.097-.739-.197-1.48-.197-2.25 0-10.857 6.26-17.875 15.945-17.875 8.154 0 14.936 6.903 15.768 15.969l2.621 56.979-.008.002.034 1.723zm4.084-.88l2.654-57.737c.839-9.152 7.623-16.056 15.775-16.056 8.795 0 15.947 8.018 15.947 17.875 0 .925-.129 1.814-.262 2.776l-6.797 56.548c-1.367 7.969-7.854 13.593-15.098 12.888-7.108-.722-12.354-7.35-12.206-15.417l-.013-.877zm56.17-23.11l11.132-43.769-27.248 69.669h-.001c-.919-2.062-1.212-4.921-1.114-7.793.02-.709.087-1.473.143-2.158l.27-2.43.537-4.858 1.075-9.718 4.302-38.87-.004.002c.227-1.631.455-2.861.892-4.09.476-1.303 1.049-2.596 1.853-3.754 1.518-2.38 3.715-4.33 6.23-5.704 2.53-1.314 5.481-2.039 8.352-1.528 2.883.442 5.543 2.179 7.33 4.597-1.561-2.562-4.121-4.63-7.158-5.38-3.037-.811-6.305-.311-9.193.893-2.877 1.262-5.5 3.21-7.453 5.752-1.02 1.239-1.811 2.655-2.488 4.122-.69 1.524-1.127 3.214-1.398 4.473l-.029.139-7.411 36.61 3.101-25.791c.146-1.058.287-2.118.287-3.221 0-11.951-8.857-21.672-19.744-21.672-10.129 0-18.536 8.386-19.562 19.593l-.893 19.67-.917-19.757c-1.021-11.12-9.427-19.506-19.556-19.506-11.81 0-19.743 8.71-19.743 21.672 0 .938.114 1.84.27 3.036l2.954 24.317-7.075-34.952-.029-.139c-.271-1.259-.708-2.948-1.397-4.473-.679-1.467-1.469-2.883-2.489-4.122-1.952-2.542-4.575-4.49-7.452-5.752-2.889-1.203-6.157-1.703-9.194-.893-3.036.75-5.599 2.818-7.158 5.38 1.788-2.418 4.448-4.154 7.331-4.597 2.869-.511 5.82.214 8.35 1.528 2.518 1.374 4.715 3.324 6.232 5.704.803 1.158 1.376 2.451 1.852 3.754.438 1.229.665 2.459.893 4.09l-.004-.002 4.301 38.87 1.076 9.718.537 4.858.269 2.43c.056.686.124 1.449.143 2.158.098 2.876-.196 5.74-1.116 7.803l-.004-.001L38.34 109.04l11.496 44.965-32.1-79.325c-.672-1.661.948-3.343 2.622-2.702 2.833 1.084 5.931 2.101 9.279 3.043 19.719 5.309 48.167 8.354 78.052 8.354 20.683 0 40.715-1.443 57.93-4.178.062-.013.15-.024.16-.024 6.525-1.041 12.58-2.268 18.001-3.647 4.066-1.082 7.776-2.273 11.122-3.562 1.678-.646 3.305 1.035 2.629 2.7l-31.725 78.146z"/></g></svg>