<?xml version="1.0" encoding="utf-8"?>
<!-- Generator: Adobe Illustrator 16.0.0, SVG Export Plug-In . SVG Version: 6.00 Build 0)  -->
<!DOCTYPE svg PUBLIC "-//W3C//DTD SVG 1.1//EN" "http://www.w3.org/Graphics/SVG/1.1/DTD/svg11.dtd">
<svg version="1.1" id="Layer_1" xmlns="http://www.w3.org/2000/svg" xmlns:xlink="http://www.w3.org/1999/xlink" x="0px" y="0px"
	 width="241.901px" height="313.552px" viewBox="0 0 241.901 313.552" enable-background="new 0 0 241.901 313.552"
	 xml:space="preserve">
<g>
	<path fill="#303030" d="M157.496,192.296c1.589,0.943,2.943,2.27,4.55,3.201c0.453,0.264,0.912-0.314,0.551-0.697
		c-0.844-0.889-1.788-1.664-2.77-2.393c-2.951-2.188-5.614-4.689-8.088-7.392c-0.457-0.499-0.718-1.178-1.069-1.773
		c-0.149-0.357-0.075-0.523,0.312-0.287c0.476,0.382,0.955,0.761,1.427,1.147c2.728,2.235,5.298,4.706,8.221,6.647
		c3.691,2.449,7.677,4.455,11.522,6.674c0.877,0.506,1.787,1.002,2.539,1.664c3.148,2.777,6.918,4.494,10.617,6.326
		c1.999,0.988,4.199,0.857,6.361,0.93c1.306,0.045,2.646,0.141,3.897,0.48c3.062,0.834,4.476,5.232,3.938,7.527
		c-0.647,2.773-1.795,5.311-3.926,7.344c-0.787,0.752-1.639,1.209-2.656,1.367c-3.051,0.471-5.983,0.432-9.027-0.629
		c-2.185-0.762-4.758-0.875-7.093-0.639c-5.245,0.527-10.447,1.484-15.675,2.203c-3.191,0.441-6.003-0.373-8.438-2.605
		c-1.674-1.533-3.608-2.781-5.307-4.291c-2.602-2.312-5.119-4.719-7.623-7.137c-0.467-0.451-1.778-1.635-0.91-1.805
		c0.977-0.199,6.748,5.512,11.127,8.248c0.264,0.164,0.555-0.17,0.35-0.402c-0.773-0.869-1.869-1.492-2.658-2.537
		c-0.227-0.299,0.104-0.701,0.44-0.535c0.818,0.404,1.587,0.785,2.363,1.168c0.765,0.379,1.69,0.027,2.011-0.764l0.01-0.025
		c0.24-0.592,0.066-1.27-0.424-1.68c-0.243-0.201-0.475-0.406-0.686-0.631c-0.604-0.643-1.135-1.354-1.703-2.031
		c-0.381-0.453-0.736-0.936-1.164-1.346c-1.518-1.455-3.102-2.844-4.576-4.342c-0.531-0.537-1.195-1.064-1.375-1.938
		c-0.062-0.297,0.211-0.572,0.499-0.479c0.406,0.133,0.677,0.445,0.968,0.752c2.41,2.525,5.062,4.768,7.93,6.756
		c0.32,0.221,0.65,0.43,0.967,0.627c0.334,0.209,0.789,0.145,1.011-0.182c0.288-0.422,0.155-0.873-0.159-1.287
		c-0.652-0.854-1.387-1.646-2.119-2.438c-0.406-0.439-0.896-0.801-1.316-1.229c-0.259-0.264-0.373-0.537-0.293-0.846
		c0.113-0.434,0.684-0.553,1.008-0.244c0.593,0.566,1.176,1.143,1.832,1.621c0.857,0.625,1.777,1.246,2.768,1.58
		c1.104,0.373,1.576-0.066,2.051-1.158c1.02-2.34,0.305-4.209-1.438-5.914c-2.124-2.074-4.282-4.121-6.21-6.381
		c-0.49-0.574-1.252-1.066-1.414-2.062c-0.047-0.297,0.322-0.479,0.547-0.279c0.341,0.303,0.626,0.557,0.9,0.822
		c2.427,2.332,4.793,4.738,7.693,6.506c0.611,0.373,1.244,0.74,1.915,0.979c0.871,0.312,1.44-0.211,1.171-1.113
		c-0.182-0.607-0.568-1.188-0.972-1.691c-0.845-1.059-1.772-2.051-2.659-3.074C157.092,192.437,157.299,192.179,157.496,192.296z"/>
	<path fill="#303030" d="M132.532,35.642c-0.691,0.425-0.768,1.16-0.933,1.896c-0.095,0.423-0.71,0.39-0.767-0.04l-0.165-1.267
		c-0.069-0.54-0.503-0.96-1.046-1.013l-0.02-0.002c-0.609-0.06-1.158,0.36-1.265,0.963c-0.3,1.693-0.622,3.377-0.829,5.075
		c-0.407,3.337-0.707,6.687-1.043,10.031c-0.011,0.11-0.016,0.224-0.023,0.334c-0.055,0.64-1.004,0.621-1.055-0.019
		c-0.02-0.262-0.034-0.527-0.019-0.792c0.274-4.792,0.476-9.585,0.28-14.388c-0.086-2.098-1.531-3.003-3.38-1.953
		c-0.429,0.244-0.756,0.955-0.826,1.491c-0.243,1.842-0.338,3.702-0.517,5.554c-0.064,0.668-0.137,2.574-0.492,1.983
		c-0.397-0.653-0.426-1.901-0.487-2.845c-0.069-1.066-0.051-2.139-0.066-3.207c-0.011-0.713-0.018-1.427-0.025-2.229
		c-0.006-0.566-0.487-1.012-1.053-0.972l-0.015,0.001c-0.505,0.036-0.9,0.451-0.912,0.957c-0.038,1.677-0.072,3.248-0.115,4.818
		c-0.076,2.818-0.146,5.638-0.258,8.455c-0.016,0.407-0.024,0.965-0.346,1.422c-0.182,0.243-0.385,0.24-0.533-0.25
		c-0.078-0.482-0.199-0.963-0.227-1.448c-0.178-3.177-0.31-6.356-0.512-9.532c-0.053-0.827-0.178-1.65-0.305-2.49
		c-0.102-0.682-1.1-0.65-1.152,0.037c0,0.006,0,0.011-0.001,0.016c-0.103,1.317-0.181,2.637-0.317,3.95
		c-0.065,0.622-0.246,1.231-0.373,1.847c-0.182,0.572-0.342,0.524-0.434,0.014c-0.211-1.125-0.502-2.242-0.619-3.378
		c-0.312-3.033-0.392-3.111-3.25-2.219c-2.566,0.802-2.07,0.87-2.049,5.382c0.004,0.785,0.212,3.391,0.189,3.916
		c-0.038,0.619-0.166,0.443-0.361,0.099c-0.194-0.378-0.44-0.739-0.574-1.138c-0.871-2.613-1.729-5.231-2.568-7.855
		c-0.42-1.311-0.925-2.613-1.154-3.961c-0.391-2.287,0.922-3.996,2.254-5.65c1.227-1.523,2.915-2.458,4.486-3.549
		c1.866-1.296,3.705-2.631,5.54-3.971c1.813-1.324,3.868-2.083,5.971-2.822c2.026-0.713,3.969-1.688,5.894-2.657
		c3.049-1.533,6.341-1.728,9.49-1.032c2.196,0.484,4.166,2.018,6.223,3.11c0.472,0.251,0.85,0.691,1.33,0.914
		c4.643,2.142,8.354,5.575,12.238,8.77c0.974,0.8,1.974,1.567,2.968,2.341c1.303,1.015,1.765,2.422,1.136,3.848
		c-1.932,4.384-3.515,8.939-6.156,12.987c-0.148,0.229-0.396,0.979-0.861,0.786c-0.288-0.16,0.215-1.384,0.357-1.923
		c0.656-2.496,1.348-4.983,1.983-7.484c0.431-1.7,0.134-1.898-1.907-2.207c-0.372-0.057-0.75-0.101-1.126-0.122
		c-1.407-0.083-1.688,0.123-2.367,1.479c-0.133,0.264-0.558,1.55-0.926,1.198c-0.806-0.827,0.38-1.986,0.153-2.834
		c-0.051-0.186-0.223-0.321-0.414-0.346c-0.438-0.056-0.764,0.16-0.947,0.663c-0.387,1.062-0.729,2.141-1.141,3.192
		c-0.152,0.39-0.275,0.991-0.473,1.232c-0.242,0.298-0.756,0.03-0.789-0.353c-0.117-1.39,0.455-2.744,0.58-4.244
		c0.043-0.525-0.396-0.968-0.923-0.929c-0.987,0.071-1.964,0.135-2.931,0.275c-1.264,0.184-1.426,1.476-2.141,2.378
		c-0.218,0.273-0.66,0.171-0.754-0.165l-0.113-0.407c-0.141-0.503-0.822-0.6-1.087-0.149c-0.124,0.212-0.181,0.477-0.228,0.747
		c-0.463,2.593-0.934,5.184-1.377,7.779c-0.06,0.352-0.096,0.706-0.269,1.033c-0.214,0.405-0.831,0.264-0.839-0.194
		c-0.045-2.593,0.705-5.07,0.313-7.572c-0.093-0.597-0.905-0.725-1.175-0.185c-0.094,0.19-0.158,0.406-0.219,0.618
		c-0.312,1.097-0.574,2.208-0.848,3.314c-0.092,0.375-0.139,0.559-0.3,0.7c-0.349,0.308-0.897-0.008-0.851-0.471
		c0.168-1.625,0.336-3.236,0.511-4.93C133.221,35.702,132.834,35.456,132.532,35.642z"/>
	<path fill="#303030" d="M105.924,102.238c-0.512,0.231-1.831-1.691-2.436-2.521c-1.766-2.427-3.462-4.903-5.201-7.349
		c-0.436-0.613-0.754-1.387-1.812-1.102c-1.678,0.451-1.955,0.828-1.37,2.479c0.253,0.713,0.828,1.799,1.274,2.41
		c1.668,2.282,3.383,4.532,5.1,6.779c0.357,0.467,1.373,1.307,0.379,1.684c-0.777,0.264-3.525-3.312-5.036-5.161
		c-1.593-1.951-3.272-3.838-4.767-5.862c-0.846-1.146-1.795-1.398-2.903-1.229c-0.741,0.113-1.155,0.922-0.807,1.584
		c0.235,0.447,0.57,0.834,0.91,1.22c0.714,0.812,1.456,1.603,2.13,2.446c0.234,0.295,0.432,0.618,0.623,0.942
		c0.324,0.556-0.388,1.124-0.857,0.685c-0.025-0.025-0.052-0.051-0.077-0.076c-1.919-1.892-3.819-3.802-5.754-5.677
		c-0.321-0.311-0.789-0.679-1.183-0.671c-1.24,0.023-2.48,0.104-3.725,0.188c-1.276,0.086-1.863,1.619-0.98,2.544
		c0.049,0.051,0.098,0.102,0.148,0.151c1.572,1.571,3.16,3.127,4.711,4.719c0.407,0.418,1.324,1.297,2.055,2.033
		c0.258,0.26-0.023,0.686-0.364,0.553c-0.556-0.216-0.653-0.089-1.233-0.564c-1.528-1.254-2.946-2.642-4.469-3.902
		c-2.01-1.663-4.064-3.271-5.977-4.795c-0.294-0.234-0.68-0.328-1.043-0.231c-0.02,0.005-0.034,0.01-0.045,0.015
		c-2.289,0.906-2.462,1.607-0.89,3.491c0.729,0.873,1.446,1.755,2.267,2.761c0.235,0.289-0.09,0.686-0.423,0.521
		c-1.085-0.536-1.897-1.27-2.808-1.812c-0.963-0.573-1.828-1.382-3.016-1.546c-0.527-0.073-0.902,0.479-0.633,0.938
		c0.281,0.479,0.709,0.816,1.122,1.12c1.929,1.42,3.913,2.766,5.88,4.135c0.838,0.584,1.698,1.136,2.516,1.744
		c0.298,0.221,1.349,1.25,0.582,1.086c-0.258-0.083-0.533-0.131-0.771-0.254c-3.25-1.68-6.557-3.264-9.72-5.096
		c-2.103-1.219-4.313-2.411-5.714-4.551c-0.487-0.746-0.979-1.502-1.351-2.308c-0.595-1.288-0.252-2.604,0.662-3.492
		c2.885-2.8,4.718-6.295,6.751-9.668c1.169-1.94,2.723-3.481,4.808-4.431c1.063-0.484,2.003-1.121,2.591-2.151
		c1.516-2.658,4.117-3.327,6.838-3.649c1.537-0.182,3.048-0.062,4.539,0.729c1.067,0.567,2.414,0.653,3.652,0.842
		c3.975,0.606,7.502,2.448,11.155,3.948c2.22,0.91,4.418,1.884,6.367,3.295c2.082,1.508,4.278,2.892,5.899,4.961
		c0.805,1.027,1.193,2.132,1.299,3.46c0.238,2.983,0.682,5.95,0.995,8.929c0.077,0.737,0.271,4.062-0.264,2.994
		c-0.181-0.34-0.521-1.367-0.673-1.721c-0.624-1.431-1.2-2.883-1.858-4.297c-0.302-0.646-0.702-1.261-1.146-1.82
		c-0.836-1.059-1.84-1.572-3.027-1.489c-0.895,0.063-1.562,0.913-1.379,1.79c0.219,1.037,0.854,2.018,1.127,3.19
		c0.148,0.634-0.344,0.762-0.934-0.274c-0.687-0.972-1.385-1.95-1.932-3.003c-0.84-1.614-2.092-2.43-3.902-2.365
		c-1.406,0.051-1.866,0.47-1.408,1.783c0.562,1.619,1.426,3.144,2.246,4.661c0.887,1.637,1.885,3.212,2.805,4.83
		C105.651,101.129,106.352,102.021,105.924,102.238z"/>
	<path fill="#303030" d="M85.59,203.501c-2.175,3.502-4.844,6.617-7.732,9.57c-2.564,2.623-5.101,5.273-7.737,8.01
		c-0.296,0.307,0.054,0.791,0.44,0.609c0.582-0.271,1.08-0.637,1.544-1.018c2.898-2.385,5.761-4.816,8.577-7.297
		c0.64-0.562,1.83-1.867,2.416-1.578c0.289,0.201-0.69,1.143-1.01,1.531c-1.496,1.818-2.952,3.66-4.061,5.752
		c-0.19,0.357-0.473,0.689-0.496,1.09c-0.023,0.406,0.387,0.699,0.777,0.588c0.553-0.156,0.861-0.713,1.243-1.102
		c1.038-1.059,2.017-2.178,3.052-3.24c0.185-0.189,0.697-0.811,0.994-0.418c0.301,0.525-0.848,1.746-1.427,2.395
		c-0.917,1.029-1.821,2.074-2.674,3.156c-0.376,0.479-0.561,0.811-0.563,1.164c-0.008,0.695,0.84,1.062,1.396,0.645
		c0.275-0.207,0.535-0.424,0.751-0.68c1.564-1.861,3.062-3.777,4.589-5.668c0.269-0.332,0.545-0.658,0.883-1.057
		c0.186-0.219,0.553-0.066,0.514,0.219c-0.138,1.01-0.646,1.689-1.084,2.352c-1.425,2.162-2.957,4.254-4.438,6.379
		c-0.155,0.223-0.346,0.492-0.343,0.736c0.005,0.41,0.034,1.047,0.271,1.17c0.348,0.18,0.9,0.051,1.338-0.061
		c0.229-0.059,0.432-0.334,0.586-0.555c1.97-2.811,3.93-5.627,5.961-8.543c0.146-0.211,0.424-0.285,0.654-0.17l0.012,0.004
		c0.268,0.133,0.368,0.471,0.217,0.73c-1.623,2.77-3.199,5.451-4.766,8.152c-0.417,0.719-0.834,1.441-1.191,2.193
		c-0.21,0.441-0.309,0.891,0.197,1.316c0.479,0.404,1.471,0.447,2.01,0.002c0.525-0.438,0.889-1.092,1.307-1.602
		c0.461-0.562,0.912-1.137,1.242-1.783c0.121-0.238,0.242-0.434,0.383-0.574c0.378-0.375,1.039-0.029,0.957,0.496
		c-0.254,1.631-1.498,2.922-2.029,4.445c-0.254,0.73,0.306,1.518,1.08,1.512c0.863-0.006,1.407-0.469,2.059-1.498
		c0.867-1.369,2.144-2.479,2.57-4.139c0.234-0.631,1.044-0.992,1.044-0.289c-0.106,0.471-0.114,0.699-0.206,0.887
		c-1.266,2.568-2.175,5.318-3.891,7.654c-0.685,0.932-1.395,1.848-2.146,2.729c-0.657,0.77-1.532,1.021-2.543,0.879
		c-2.296-0.32-4.488-0.047-6.563,1.078c-0.665,0.361-1.449,0.496-2.172,0.754c-1.445,0.516-2.884,1.055-4.332,1.562
		c-1.307,0.459-2.594,0.131-3.889-0.115c-1.038-0.197-2.093-0.443-3.135-0.416c-0.771,0.02-1.512,0.301-2.152,0.729
		c-1.953,1.303-4.176,1.576-6.402,1.789c-1.416,0.137-2.614-0.551-3.411-1.697c-0.687-0.99-1.444-2.049-1.717-3.186
		c-0.591-2.465-1.063-5.01-0.272-7.527c0.232-0.744,0.782-1.406,1.262-2.051c0.458-0.615,1.107-1.1,1.51-1.744
		c1.395-2.23,3.256-3.846,5.727-4.799c3.733-1.438,7.134-3.512,10.453-5.709c0.887-0.588,1.715-1.262,2.463-2.021
		c3.049-3.09,6.062-6.215,9.043-9.371c0.64-0.676,0.975-1.139,1.555-1.875c0.188-0.238,0.627-0.76,0.891-0.938
		C85.713,202.63,86.182,202.738,85.59,203.501z"/>
	<path fill="#303030" d="M154.247,88.245c0.379-0.773,0.547-1.209,0.789-1.599c1.428-2.294,2.926-4.546,4.292-6.877
		c0.658-1.123,1.104-2.374,1.597-3.589c0.132-0.327,0.183-0.496,0.102-0.713c-0.215-0.581-0.998-0.7-1.426-0.252
		c-0.158,0.166-0.305,0.336-0.426,0.521c-1.219,1.849-2.379,3.735-3.588,5.59c-0.228,0.349-0.487,0.677-0.75,1.002
		c-0.384,0.474-1.137-0.012-0.85-0.55c0.051-0.097,0.107-0.193,0.154-0.291c0.673-1.4,1.35-2.801,1.96-4.229
		c0.01-0.023,0.02-0.047,0.028-0.071c0.314-0.883-0.571-1.778-1.447-1.441c-0.338,0.13-0.624,0.379-0.855,0.743
		c-0.797,1.258-1.51,2.573-2.189,3.899c-0.193,0.378-0.309,0.806-0.59,1.1c-0.354,0.37-0.965,0.06-0.91-0.449
		c0.115-1.055,0.817-2.044,0.705-3.136c-0.039-0.377-0.448-0.586-0.772-0.39c-0.539,0.326-0.737,0.962-1.021,1.494
		c-0.931,1.748-1.806,3.524-2.749,5.265c-0.229,0.422-0.506,0.816-0.793,1.221c-0.357,0.502-1.14,0.11-0.955-0.477
		c0.084-0.27,1.781-5.01,2.041-5.952c0.154-0.557,0.312-1.136-0.451-1.448c-0.621-0.254-1.93,0.253-2.18,0.86
		c-0.295,0.718-0.453,1.491-0.709,2.227c-0.514,1.471-1.036,2.94-1.596,4.394c-0.119,0.306-0.666,1.824-0.891,1.124
		c-0.318-1.808,0.53-3.064,0.709-4.405c0.139-1.026,0.363-2.041,0.595-3.109c0.146-0.677-0.278-1.348-0.954-1.502l-1.03-0.236
		c-0.79-0.181-1.582,0.314-1.755,1.107c-0.111,0.506-0.185,1.024-0.404,1.506c-0.21,0.464-0.906,0.35-0.988-0.153
		c-0.086-0.525-0.16-1.001-0.211-1.479c-0.076-0.716,0.021-1.655-0.854-1.77c-0.846-0.11-1.287-0.024-2.117,0.244
		c-0.598,0.222-0.773,0.981-0.775,1.428c-0.011,1.916,0.043,3.833,0.039,5.749c0,0.049-0.004,0.097-0.011,0.146
		c-0.085,0.607-0.97,0.613-1.083,0.01l-0.002-0.009c-0.255-1.416-0.424-2.847-0.654-4.268c-0.084-0.512-0.188-1.021-0.291-1.516
		c-0.13-0.628-0.695-1.073-1.336-1.051c-1.426,0.048-1.627,0.579-1.511,2.339c0.024,0.359,0.245,1.896-0.235,1.502
		c-0.812-0.691-0.502-2.066-1.283-2.836c-0.26-0.255-0.705-0.099-0.738,0.264c-0.301,3.316,1.126,8.606,0.365,8.697
		c-0.197-0.033-0.395-0.479-0.467-0.752c-0.463-1.738-0.879-3.488-1.336-5.228c-0.062-0.235-0.143-0.466-0.267-0.693
		c-0.175-0.322-0.664-0.228-0.716,0.135l-0.118,0.832c-0.057,0.401-0.622,0.499-0.831,0.122c-0.613-1.105-0.443-2.469-1.496-3.116
		c-0.727,0.259-0.592,0.769-0.459,1.225c0.641,2.183,1.234,4.382,1.982,6.528c0.504,1.449,1.121,2.857,1.755,4.346
		c0.259,0.608-0.589,1.058-0.951,0.505c-0.1-0.152-0.183-0.311-0.261-0.456c-1.427-2.632-2.766-5.312-4.156-7.964
		c-0.721-1.377-1.399-2.789-2.252-4.082c-1.033-1.569-0.87-4.718,0.566-5.96c1.206-1.043,2.597-1.875,3.789-2.933
		c1.202-1.065,2.363-2.214,3.357-3.47c1.717-2.168,3.879-3.748,6.268-5.013c2.129-1.127,4.26-2.222,6.1-3.801
		c3.335-2.866,8.768-2.521,12.128,0.275c1.319,1.098,2.873,1.985,4.445,2.689c2.952,1.321,5.327,3.429,7.839,5.354
		c1.091,0.838,2.166,1.713,3.139,2.681c1.479,1.47,1.668,3.814,0.556,5.61c-1.827,2.951-3.593,5.943-5.524,8.824
		c-1.266,1.887-2.773,3.61-4.188,5.396C154.799,88.47,153.817,89.088,154.247,88.245z"/>
	<path fill="#303030" d="M106.416,154.212c0.656,0.707-0.373,3.406-0.591,4.95c-0.134,0.944-0.331,1.89-0.376,2.833
		c-0.058,1.206,1.101,2.187,2.247,1.806c0.609-0.202,0.951-0.736,1.278-1.744c0.499-1.531,0.844-3.112,1.261-4.67
		c0.061-0.227,0.125-0.452,0.191-0.688c0.141-0.491,0.848-0.476,0.959,0.022c0.078,0.345,0.004,0.702,0.031,1.025
		c0.124,1.551,0.1,3.127,0.383,4.646c0.208,1.119,0.783,2.051,1.883,2.607c0.443,0.225,0.974-0.11,0.977-0.608
		c0.008-1.187-0.385-2.263-0.553-3.362c-0.171-1.118-0.268-2.25-0.099-3.461c0.062-0.441,0.644-0.583,0.894-0.214
		c0.217,0.319,0.232,0.71,0.262,1.086c0.186,2.372,0.9,4.584,2.012,6.675c0.393,0.739,0.82,1.451,1.488,2.094
		c0.398,0.385,1.082,0.084,1.047-0.468c-0.098-1.503-0.697-2.879-0.736-4.297c-0.012-0.46,0.539-0.756,0.897-0.468
		c0.352,0.283,0.45,0.742,0.528,1.197c0.596,3.438,2.486,6.174,4.733,8.703c0.648,0.73,1.345,1.18,2.143,1.412
		c0.79,0.23,1.586-0.41,1.485-1.227c-0.062-0.507-0.231-1.007-0.439-1.511c-1.303-3.159-2.576-6.331-3.85-9.502
		c-0.027-0.07-0.053-0.133-0.074-0.19c-0.281-0.747,0.807-1.251,1.182-0.546c0.039,0.073,0.07,0.147,0.092,0.225
		c0.955,3.403,3.006,6.271,4.538,9.386c1.104,2.248,2.488,4.357,3.652,6.578c0.581,1.107,1.02,2.303,1.394,3.5
		c0.684,2.185-1.082,4.033-3.345,3.565c-2.216-0.458-4.472-0.784-6.634-1.423c-2.994-0.884-5.961-0.529-8.929-0.129
		c-3.031,0.408-6.03,1.07-9.065,1.448c-1.221,0.152-2.508-0.101-3.752-0.269c-4.131-0.56-8.115-0.049-12.027,1.365
		c-2.618,0.944-5.355,1.317-8.146,1.325c-1.294,0.004-2.491-0.297-3.044-1.506c-0.605-1.329-0.682-2.753,0.529-3.962
		c1.328-1.326,2.568-2.739,3.807-4.149c1.545-1.758,3.131-3.492,4.529-5.364c1.938-2.595,3.416-5.539,5.293-8.161
		c0.822-1.146,1.51-2.383,2.085-3.673l0.006-0.013c0.235-0.512,1.028-0.361,1.001,0.202c-0.012,0.255-0.159,0.512-0.264,0.738
		c-1.331,2.888-2.778,5.712-4.617,8.321c-0.156,0.222-0.338,0.442-0.473,0.689c-0.297,0.548,0.451,1.092,0.897,0.657
		c1.022-0.998,1.681-2.3,2.568-3.548c0.341-0.479,1.099-0.167,1.016,0.415l-0.125,0.867c-0.051,0.354,0.239,0.67,0.597,0.648
		c0.99-0.061,1.688-0.663,2.35-1.292c1.379-1.311,2.162-3,2.92-4.714c1.041-2.356,2.154-4.681,3.257-7.01
		C105.799,154.801,106.112,153.943,106.416,154.212z"/>
	<path fill="#303030" d="M111.193,128.038l0.07,0.406c0.106,0.608,0.803,0.949,1.32,0.612c0.847-0.55,1.089-1.567,1.54-2.515
		c0.168-0.353,0.688-0.285,0.756,0.1l0.246,1.406c0.039,0.226,0.264,0.369,0.488,0.318c1.543-0.348,2.196-1.427,2.577-2.798
		c0.12-0.437,0.69-0.533,0.945-0.157c0.212,0.314,0.407,0.553,0.655,0.635c0.629,0.209,1.418,0.036,2.119-0.085
		c2.359-0.408,4.688-0.714,7.089-0.107c0.528,0.133,1.157-0.136,1.854-0.378c0.448-0.156,0.949,0.007,1.223,0.395
		c0.492,0.696,0.891,1.623,1.877,1.908c0.295,0.086,0.598-0.117,0.621-0.425l0.039-0.525c0.029-0.396,0.496-0.588,0.797-0.331
		c0.936,0.8,1.802,1.541,2.696,2.307c0.296,0.253,0.745,0.18,0.952-0.149c0.072-0.114,0.13-0.214,0.18-0.317
		c0.007-0.015,0.014-0.028,0.02-0.043c0.196-0.429,0.774-0.513,1.072-0.146c1.178,1.452,1.818,3.347,3.699,3.889
		c0.296,0.085,0.617,0.01,0.854-0.188l0.01-0.008c0.328-0.275,0.806-0.277,1.14-0.011c1.84,1.474,3.628,2.879,5.369,4.341
		c1.341,1.126,2,2.666,2.317,4.361c0.098,0.523,0.182,1.051,0.281,1.638c-1.492,2.598-2.715,3.305-5.218,2.978
		c-0.887-0.115-1.776-0.215-2.663-0.338c-3.215-0.447-6.441-0.412-9.678-0.323c-3.396,0.094-6.796-0.002-10.189,0.125
		c-1.906,0.071-3.805,0.642-5.7,0.608c-4.9-0.082-9.677,0.922-14.487,1.533c-2.438,0.311-4.845,0.768-7.308,0.694
		c-2.312-0.069-3.415-2.001-2.271-3.997c1.251-2.183,2.507-4.369,3.884-6.472c0.735-1.123,1.647-2.131,2.589-3.263
		c0.21-0.252,0.604-0.229,0.779,0.049l0.212,0.336c0.189,0.301,0.656,0.278,0.827-0.053c1.134-2.193,2.196-4.246,3.269-6.319
		c0.078-0.149,0.305-0.066,0.267,0.097c-0.411,1.79-1.128,6.254-0.375,4.812c0.75-1.566,1.474-3.146,2.204-4.722l0.004-0.013
		C110.372,127.409,111.098,127.503,111.193,128.038z"/>
	<path fill="#303030" d="M96.982,114.422c0.448,0.661-0.905,0.753-1.398,0.872c-2.155,0.516-4.313,1.156-6.506,1.353
		c-3.704,0.333-7.434,0.376-11.153,0.517c-1.671,0.064-3.416-0.244-5.398,0.109c-1.133,0.287,0.781,0.632,1.044,0.664
		c4.002,0.498,8.014,0.784,12.049,0.501c0.416-0.029,0.839-0.019,1.254,0.02c0.155,0.015,0.505,0.084,0.458,0.259
		c0.103,0.865-0.515,1-1.104,1.118c-1.06,0.212-2.131,0.371-3.188,0.593c-0.613,0.127-2.383,0.633-1.779,0.727
		c4.097,0.43,8.137-0.347,12.325-0.109c1.265,0.144-0.535,0.519-0.848,0.597c-2.441,0.608-4.896,1.161-7.343,1.751
		c-1.026,0.248-2.041,0.541-3.07,1.138c-0.686,0.436,0.547,0.325,0.83,0.345c4.115,0.3,8.149-0.188,12.129-1.247
		c0.408-0.108,0.833-0.155,1.262-0.195c0.648-0.062,0.867,0.841,0.264,1.088c-0.183,0.075-0.381,0.122-0.545,0.181
		c-0.662,0.234-1.318,0.488-1.999,0.664c-3.784,0.971-7.678,1.431-11.487,2.275c-3.082,0.684-6.184,0.898-9.316,0.773
		c-6.982-0.276-13.763,1.038-20.478,2.746c-1.987,0.507-3.909,1.229-5.795,2.036c-2.985,1.277-5.789,0.812-8.624-0.355
		c-0.443-0.183-0.881-0.438-1.344-0.504c-1.926-0.273-2.796-1.957-2.882-3.804c-0.079-1.703,0.236-3.151,1.64-4.333
		c1.045-0.881,1.818-2.078,2.832-3.004c0.877-0.802,1.881-1.484,2.898-2.106c2.656-1.622,5.254-3.39,8.058-4.713
		c3.253-1.534,6.716-2.509,10.42-1.674c3.222,0.727,6.47,1.164,9.788,1.282c3.959,0.141,7.904,0.672,11.863,0.847
		c3.352,0.146,6.715,0.078,10.07-0.001c1.249-0.03,2.49-0.364,3.734-0.554C96.024,114.22,96.684,114.038,96.982,114.422z"/>
	<path fill="#303030" d="M124.776,106.573c1.137,0.485,2.346,2.966,4.053,3.784c0.145,0.069,1.021,0.415,0.894-0.033
		c-0.532-1.555-3.714-4.674-2.438-4.621c0.709,0.043,0.842,0.394,1.059,0.611c0.381,0.382,0.653,0.868,1.035,1.246
		c1.564,1.546,3.713,1.59,5.334,0.138c0.835-0.749,0.748-2.146-0.22-3.242c-0.395-0.446-0.854-0.84-1.212-1.312
		c-0.139-0.183-0.677-0.887-0.139-0.984c0.519-0.031,0.865,0.17,1.128,0.337c0.964,0.611,1.892,1.279,2.845,1.908
		c0.428,0.281,0.861,0.489,1.334,0.442c0.619-0.062,0.826-0.877,0.35-1.277c-1.082-0.913-2.18-1.839-3.402-2.87
		c-0.399-0.337-0.228-1.032,0.295-1.076c0.066-0.005,0.121,0.003,0.164,0.03c0.859,0.541,1.637,1.207,2.467,1.795
		c0.633,0.447,1.26,0.939,1.963,1.241c0.761,0.327,1.348-0.252,1.069-1.043c-0.192-0.549-0.55-1.075-0.942-1.511
		c-0.843-0.936-1.759-1.804-2.64-2.705c-0.356-0.364-2.831-2.569-0.622-1.493c1.426,0.933,2.721,1.872,4.102,2.659
		c1.353,0.771,2.774,1.426,4.199,2.057c1.16,0.515,2.379,0.303,3.525-0.072c1.041-0.34,1.21-1.088,0.51-1.961
		c-0.295-0.367-0.608-0.719-0.908-1.091c-0.257-0.316,0.102-0.761,0.469-0.582c1.264,0.617,2.414,1.594,3.92,1.767
		c0.68,0.077,1.127-0.709,0.71-1.252c-0.858-1.122-1.846-2.086-2.632-3.203c-0.281-0.398,0.158-0.905,0.59-0.68
		c0.703,0.368,1.405,0.739,2.09,1.141c1.729,1.012,3.522,1.755,5.542,2.007c0.909,0.113,1.813,0.534,2.646,0.96
		c2.661,1.363,5.25,2.872,7.942,4.17c1.937,0.935,4.002,1.6,5.993,2.426c2.777,1.15,4.725,3.232,6.256,5.74
		c0.307,0.503,0.539,1.086,0.658,1.662c0.371,1.793-0.512,3.201-2.268,3.757c-1.379,0.435-2.73,0.144-4.093-0.12
		c-2.415-0.469-4.83-0.95-7.258-1.346c-2.415-0.393-4.792-0.049-7.094,0.649c-1.695,0.515-3.448,0.819-5.22,0.812
		c-3.453-0.011-6.936-0.062-10.354,0.349c-2.466,0.297-4.905,0.351-7.364,0.362c-1.768,0.008-3.538,0.05-5.296,0.236
		c-2.043,0.216-4.021,0.079-5.956-0.599c-1.172-0.41-1.908-1.1-2.088-2.425c-0.25-1.841-0.671-3.657-0.985-5.49
		C124.713,107.45,124.311,106.419,124.776,106.573z"/>
	<path fill="#303030" d="M103.339,198.804c0.314-0.375,0.927-0.094,0.839,0.389c-0.291,1.629-0.734,3.221-1.422,4.752
		c-0.988,2.201-1.274,4.578-1.879,6.875c-0.395,1.309,0.998-0.393,1.14-0.758c0.735-1.898,1.423-3.816,2.096-5.738
		c0.065-0.188,0.097-0.393,0.147-0.59c0.141-0.553,0.952-0.488,0.984,0.082c0.084,1.447-0.428,2.842-0.599,4.285
		c-0.069,0.584,0.572,1.021,1.071,0.707c0.639-0.4,1.086-0.984,1.459-1.686c0.888-1.672,1.364-3.457,1.619-5.316
		c0.07-0.51,0.026-1.141,1.031-1.076c0.428,0.033,0.086,1.785-0.143,3.328c-0.107,0.715,0.592,1.275,1.275,1.039
		c0.924-0.322,1.525-0.939,1.875-2.008c0.855-2.611,1.049-5.289,1.096-8.002c0.006-0.338-0.021-0.691,0.037-1.051
		c0.094-0.564,0.919-0.549,0.984,0.02c0.335,2.922,0.057,5.785,0.439,8.611c0.078,0.584,0.621,0.992,1.203,0.904l0.011-0.002
		c2.433-0.371,2.816-1.045,2.287-3.547c-0.322-1.518-0.483-3.072-0.683-4.615c-0.035-0.275-0.076-0.695,0.156-0.857
		c0.557-0.285,0.658,0.605,0.728,1.02c0.39,2.305,0.963,4.549,1.897,6.705c0.197,0.457,0.432,0.766,0.773,0.908
		c0.605,0.252,1.259-0.273,1.197-0.928l-0.357-3.865c-0.041-0.443,0.539-0.646,0.787-0.275c0.221,0.328,0.311,0.668,0.42,0.996
		c0.345,1.025,0.661,2.059,1.026,3.076c0.564,1.574,1.392,2.91,3.131,3.438c0.147,0.045,0.291,0.098,0.436,0.158
		c0.646,0.268,1.334-0.318,1.157-0.994c-0.137-0.518-0.335-0.998-0.5-1.488c-0.787-2.33-1.57-4.66-2.295-7.01
		c-0.072-0.236-0.162-0.621-0.242-1.02c-0.111-0.555,0.643-0.895,0.947-0.418c0.02,0.031,0.034,0.059,0.044,0.086
		c0.729,1.965,1.28,4.006,2.134,5.914c1.99,4.447,4.242,8.732,7.826,12.195c1.935,1.869,3.65,3.969,5.444,5.982
		c0.313,0.354,0.532,0.795,0.771,1.209c0.903,1.564,0.33,2.658-1.448,3.072c-2.938,0.688-5.662-0.439-8.486-0.988
		c-1.254-0.246-2.497-0.543-3.713-0.938c-3.014-0.975-6.103-1.012-9.195-0.965c-1.987,0.027-3.937-0.086-5.866-0.666
		c-4.091-1.23-8.062-0.471-11.996,0.848c-1.356,0.455-2.761,0.77-4.144,1.141c-3.13,0.84-4.214-2.02-3.555-4.082
		c0.237-0.74,0.597-1.443,0.914-2.156c1.928-4.328,3.879-8.648,5.774-12.99c0.478-1.096,0.751-2.279,1.17-3.402
		C103.182,199.015,103.25,198.91,103.339,198.804z"/>
	<path fill="#303030" d="M59.016,160.917c-0.782,0.732-0.341,2.067,0.723,2.196c0.327,0.039,0.672,0.041,1.024,0.042
		c3.906,0.018,7.597-0.956,11.213-2.319c0.419-0.157,1.209-0.57,1.462-0.392c0.836,0.718-1.062,1.215-1.672,1.396
		c-2.356,0.7-4.74,1.311-7.115,1.947c-6.381,1.712-12.889,1.089-19.364,1.033c-0.245-0.002-0.632-0.081-0.86-0.169
		c-2.418-0.931-4.982-1.257-7.484-1.845c-2.271-0.533-4.464-0.567-6.722,0.168c-1.987,0.647-4.054,1.066-6.102,1.514
		c-1.888,0.412-3.551,0.072-4.772-1.62c-0.416-0.579-0.99-1.046-1.498-1.559c-1.916-1.937-1.971-4.272-0.067-6.163
		c1.53-1.521,3.05-3.074,4.729-4.415c1.348-1.075,2.883-1.943,4.42-2.741c2.273-1.182,4.559-2.4,6.963-3.252
		c1.477-0.521,3.182-0.447,4.791-0.532c2.27-0.119,4.543-0.139,6.816-0.2c1.953-0.054,3.92,0.016,5.856-0.193
		c1.901-0.207,3.776-0.675,5.655-1.069c1.287-0.27,2.552-0.649,3.841-0.901c0.346-0.067,0.7-0.088,1.062-0.098
		c0.65-0.018,0.793,0.904,0.168,1.091c-0.086,0.026-0.172,0.049-0.256,0.072c-3.164,0.9-6.945,2.153-10.262,2.439
		c-2.502,0.216-4.343,0.412-6.828,0.814c-0.382,0.062-1.773,0.316-1.089,0.558c5.157,1.164,10.278-0.099,15.406-0.367
		c0.621-0.088,0.664,0.189,0.081,0.411c-0.576,0.246-1.129,0.583-1.729,0.723c-1.806,0.422-3.626,0.786-5.448,1.138
		c-1.943,0.375-3.898,0.688-5.839,1.071c-0.785,0.155-1.011,0.779-0.458,1.282c0.697,0.633,1.397,1.261,2.504,1.176
		c3.045-0.236,6.1-0.352,9.144-0.594c1.784-0.143,3.555-0.463,5.337-0.643c0.197-0.02,0.399,0.01,0.602,0.055
		c0.574,0.128,0.64,0.925,0.088,1.129c-0.182,0.068-0.389,0.106-0.604,0.153c-2.574,0.563-5.131,1.209-7.703,1.785
		c-0.129,0.029-0.254,0.063-0.373,0.104c-1.246,0.419-1.604,2.034-0.688,2.978c0.783,0.806,1.805,1.225,3.197,1.071
		c2.75-0.303,5.493-0.678,8.255-0.844c1.44-0.086,2.872-0.238,4.306-0.382c0.6-0.116,0.878,0.119,0.155,0.431
		c-0.41,0.246-0.792,0.603-1.236,0.721c-2.307,0.613-4.61,1.259-6.951,1.709C60.437,160.068,59.663,160.314,59.016,160.917z"/>
	<path fill="#303030" d="M173.616,159.916c0.727,0.054,1.456,0.087,2.18,0.164c0.715,0.077,1.424,0.265,2.137,0.28
		c0.845,0.019,2.777-0.628,1.287-1.401c-1.415-0.721-2.816-1.435-4.217-2.148c-0.482-0.237-0.375-0.429,0.127-0.394
		c1.869-0.014,5.645,1.438,5.719,0.502c0.031-0.602-1.057-0.702-1.58-0.872c-2.277-0.74-4.588-1.383-6.842-2.19
		c-1.271-0.455-2.836-1.787-2.172-2.184c0.317-0.265,0.678-0.004,0.865,0.132c2.452,1.774,5.349,2.073,8.199,2.353
		c4.615,0.453,9.253,0.422,13.852-0.18c2.512-0.328,4.906-0.049,7.264,0.702c0.947,0.302,1.822,0.849,2.705,1.331
		c2.508,1.374,4.337,3.549,6.377,5.475c0.479,0.451,0.904,0.971,1.43,1.357c1.865,1.371,1.925,3.262,1.592,5.275
		c-0.037,0.223-0.156,0.472-0.314,0.629c-1.6,1.581-3.326,2.945-5.678,3.203c-0.354,0.039-0.703,0.136-1.053,0.215
		c-2.497,0.57-4.846,0.762-7.314-0.589c-2.521-1.38-5.316-1.942-8.336-1.267c-2.02,0.453-4.185,0.215-6.275,0.4
		c-3.119,0.278-6.07,1.301-9.063,2.152c-3.038,0.865-6.097,1.155-9.198,0.105c-2.66-0.9-5.446-1.462-8.05-2.492
		c-2.376-0.941-4.589-2.299-6.858-3.504c-0.283-0.149-0.683-0.623-0.553-1.027c0.127-0.301,0.737,0.061,1.009,0.239
		c3.079,2.026,6.565,2.913,10.11,3.596c1.287,0.247,2.438,0.347,3.826,0.361c1.204,0.001,2.117-2.848,2.117-2.848
		c0.271-0.688-1.506-1.305-2.419-1.793c-0.655-0.304-0.446-0.752,1.104-0.42c0.822,0.176,1.642,0.369,2.469,0.521
		c1.547,0.285,2.091,0.21,3.721-0.712c0.759-0.398-1.434-1.646-0.826-1.902c0.299-0.008,1.434,0.508,1.689,0.623
		c1.159,0.525,1.807-0.173,2.406-0.963c0.59-0.778,0.461-1.199-0.461-1.669c-0.352-0.18-0.711-0.345-1.066-0.517
		C172.834,160.181,172.876,159.903,173.616,159.916z"/>
	<path fill="#303030" d="M23.053,97.641c1.452-0.099,2.906-0.301,4.355-0.265c1.143,0.029,2.363-0.611,3.635-0.09
		c0.392,0.16,0.379,0.732-0.022,0.869c-2.085,0.709-4.446,0.733-6.306,1.252c-0.463,0.128-0.319,0.256-0.033,0.377
		c0.479,0.188,1.266,0.25,1.656,0.245c1.442-0.017,2.884-0.109,4.326-0.119c0.158-0.001,0.316,0.011,0.486,0.031
		c0.645,0.078,0.844,0.92,0.303,1.279l-0.01,0.007c-0.35,0.23-0.762,0.369-1.104,0.607c-0.695,0.486-1.504,1.03-1.195,2.004
		c0.419,1.322,2.006,0.888,2.768,0.852c1.352-0.064,4.488-1.121,5.518-1.053c0.773,0.052,0.986,1.093,0.308,1.465
		c-0.622,0.34-2.862,1.06-3.358,1.277c-0.793,0.349-0.81,1.483-0.018,1.834c0.547,0.241,1.141,0.29,1.73,0.293
		c0.766,0.003,1.533-0.238,2.295-0.396c3.342-0.691,6.68-1.405,10.026-2.074c0.015-0.003,0.028-0.006,0.043-0.009
		c0.714-0.127,1.041,0.894,0.387,1.207c-0.227,0.107-0.462,0.195-0.702,0.277c-2.096,0.712-4.199,1.406-6.285,2.147
		c-0.304,0.107-0.597,0.242-0.914,0.398c-0.491,0.241-0.33,0.994,0.217,0.994c1.133,0,2.172-0.535,3.303-0.255
		c0.808,0.326-1.369,0.971-1.713,1.074c-4.359,1.3-8.602,3.114-13.121,3.714c-3.068,0.407-6.07,1.603-9.243,1.073
		c-3.845-0.641-7.648-1.388-11.251-3.01c-2.443-1.1-3.367-3.081-3.822-5.459c-0.18-0.939-0.27-1.899-0.35-2.854
		c-0.12-1.443-0.111-2.839,0.695-4.173c0.804-1.327,1.364-2.798,2.125-4.154c1.439-2.567,3.554-3.814,6.62-3.766
		c4.864,0.078,9.741,0.011,14.597-0.261c3.58-0.2,7.137-0.812,10.701-1.267c1.62-0.208,3.232-0.483,4.978-0.436
		c1.071,0.074-0.427,0.523-0.696,0.608c-1.998,0.634-3.984,1.34-6.025,1.799c-4.082,0.92-8.201,1.681-12.297,2.547
		c-0.917,0.193-1.799,0.55-2.697,0.831C22.507,97.263,22.427,97.663,23.053,97.641z"/>
	<path fill="#303030" d="M167.67,77.921c1.828-0.359,3.662-0.693,5.479-1.104c0.811-0.183,1.602-0.492,2.365-0.829
		c0.27-0.119,0.488-0.282,0.643-0.493c0.368-0.504-0.039-1.215-0.662-1.215h-1.322c-0.62,0-0.688-0.904-0.074-0.998
		c0.104-0.016,0.205-0.029,0.303-0.048c2.242-0.425,4.486-0.834,6.732-1.239c1.687-0.305,5.68-1.604,4.716-2.337
		c-0.358-0.205-1.007-0.179-1.358-0.131c-2.261,0.313-4.508,0.73-6.775,0.973c-1.334,0.144-4.455,0.298-4.146-0.26
		c0.182-0.317,0.602-0.4,0.933-0.482c4.383-1.089,8.781-2.121,13.154-3.254c0.911-0.235,2.315-0.831,3.156-1.254
		c3.942-1.978,7.231,1.691,11.41,3.843c0.396,0.205,0.82,0.354,1.25,0.476c2.818,0.801,5.021,1.72,6.186,3.931
		c0.084,0.159,0.191,0.307,0.275,0.465c0.503,0.941,1.496,1.948,1.384,2.811c-0.157,1.215-1.108,2.338-1.767,3.475
		c-1.577,2.723-4.312,3.691-7.098,4.432c-2.789,0.742-5.584,0.729-8.521,0.349c-3.229-0.417-6.596-0.015-9.878,0.292
		c-2.921,0.273-5.798,0.996-8.714,1.354c-4.471,0.549-8.96,0.922-13.474,0.672c-0.491-0.027-2.479-0.18-1.454-0.479
		c4.484-0.892,12.43-1.514,13.807-1.897c1.368-0.32,1.88-1.645-0.367-1.616c-3.32,0.104-6.608,0.681-9.918,0.482
		c-1.004-0.083-0.725-0.339-0.068-0.487c0.777-0.157,1.561-0.29,2.33-0.477c1.918-0.465,3.858-0.863,5.732-1.467
		c0.871-0.28,1.604-0.814,2.012-1.704c0.219-0.479-0.131-1.033-0.655-1.079c-1.876-0.164-3.73,0.083-5.556,0.01
		C167.303,78.614,167.25,78.004,167.67,77.921z"/>
	<path fill="#303030" d="M60.19,76.274c-1.76,0.273-5.98-0.703-6.932-0.193c-0.441,0.235-0.457,0.866-0.031,1.127
		c0.868,0.531,2.02,0.445,2.95,0.961c0.327,0.181,0.239,0.673-0.134,0.721c-1.624,0.21-3.367-0.446-4.939,0.307
		c-0.617,0.294-0.64,1.164-0.063,1.532c0.286,0.184,0.562,0.334,0.858,0.415c2.018,0.551,4.064,0.997,6.107,1.453
		c0.336,0.075,0.698,0.076,1.041,0.195c0.461,0.158,0.453,0.829-0.018,0.954c-0.063,0.018-0.126,0.028-0.189,0.034
		c-4.698,0.359-9.346,0.119-13.849-1.403c-3.624-1.226-7.373-1.527-11.154-1.646c-0.614-0.02-1.227-0.064-1.841-0.098
		c-0.835-0.018-0.729,0.238-0.084,0.387c0.586,0.157,1.164,0.355,1.758,0.466c1.413,0.263,2.834,0.484,4.252,0.721l0.014,0.003
		c0.676,0.113,0.606,1.113-0.078,1.126c-3.109,0.055-6.15-0.971-9.314-1.083c-0.59-0.021-0.732,0.828-0.166,0.997
		c0.063,0.019,0.127,0.037,0.191,0.058c2.997,0.956,6.092,1.304,9.213,1.548c2.007,0.157,4.734,0.562,5.919,1.043
		c1.248,0.549-0.534,0.501-0.981,0.48c-2.221-0.105-4.45-0.129-6.657-0.362C31.346,85.517,26.628,85,21.94,84.303
		c-2.472-0.367-4.371-2.306-5.281-5.325c-0.672-2.234-0.272-4.232,1.453-5.942c1.244-1.232,2.618-2.255,4.037-3.277
		c2.523-1.817,4.944-3.802,7.252-5.89c1.242-1.125,2.451-1.525,4.074-1.253c2.851,0.479,5.648,1.052,8.311,2.252
		c1.414,0.637,2.975,0.94,4.439,1.473c3.381,1.228,6.754,2.479,10.106,3.78c0.3,0.116,0.626,0.233,0.925,0.416
		c0.584,0.355,0.291,1.214-0.39,1.162c-0.378-0.029-0.743-0.145-1.11-0.232c-2.212-0.532-4.42-1.08-6.645-1.553
		c-0.336-0.072-0.688-0.071-1.035-0.056c-0.69,0.031-0.94,0.932-0.354,1.297c0.004,0.003,0.009,0.006,0.014,0.009
		c2.878,1.789,6.026,2.909,9.276,3.772c0.691,0.183,1.427,0.198,2.132,0.339c0.371,0.073,0.732,0.193,1.096,0.309
		C60.6,75.698,60.563,76.217,60.19,76.274z"/>
	<path fill="#303030" d="M182.014,130.61c0.682,0.037,1.378,0,2.045,0.123c3.393,0.621,6.818,0.592,10.244,0.574
		c0.383-0.002,0.77-0.028,1.15-0.08c1.586-0.213,1.876-0.314,2.437-1.568c0.169-0.377-0.009-0.822-0.394-0.977
		c-0.513-0.205-1.506-0.318-1.538-0.617c-0.096-0.406,3.19-0.299,4.693-0.752c0.897-0.271,1.837-0.561,2.626-1.19
		c0.559-0.444,0.241-1.35-0.473-1.353c-1.477-0.005-2.873,0.437-4.28,0.417c-1.86-0.026-3.724,0.053-5.583,0.14
		c-1.883,0.089-5.867,0.844-5.74,0.097c0.176-0.927,0.766-0.893,1.271-0.943c2.568-0.256,5.139-0.5,7.709-0.743
		c4.082-0.387,8.072-1.185,11.91-2.671c0.229-0.088,0.461-0.166,0.695-0.258c0.381-0.148,0.295-0.713-0.111-0.75l-1.5-0.134
		c-0.386-0.035-0.496-0.56-0.149-0.734c1.616-0.812,3.464-0.839,5.094-1.567c0.379-0.169,0.266-0.737-0.15-0.748
		c-3.103-0.077-6.204-0.168-9.308-0.206c-3.508-0.043-7.023,0.067-10.52-0.908c0.299-0.109,0.595-0.308,0.896-0.314
		c3.664-0.094,7.332-0.105,10.994-0.246c4.322-0.168,8.605-0.463,12.703-2.176c3.412-1.427,7.009-1.491,10.607-0.523
		c1.307,0.352,2.227,1.219,2.949,2.25c1.062,1.521,2.044,3.105,2.953,4.724c1.18,2.095,0.126,6.228-1.791,7.729
		c-1.037,0.812-1.98,1.752-2.929,2.675c-0.716,0.696-1.37,1.449-2.05,2.18c-0.658,0.709-1.473,1.068-2.438,0.998
		c-1.134-0.082-2.269-0.172-3.396-0.314c-1.721-0.219-3.436-0.475-5.148-0.739c-0.592-0.091-1.201-0.179-1.75-0.397
		c-3.035-1.211-5.967-0.767-8.91,0.37c-1.05,0.405-2.188,0.814-3.287,0.816c-5.465,0.009-10.945,0.185-16.369-0.707
		c-1.104-0.181-2.169-0.588-3.252-0.892C181.264,130.92,181.35,130.685,182.014,130.61z"/>
	<path fill="#303030" d="M48.397,192.931c1.798,0.879,3.867-0.24,5.635,0.398c0.428,0.154,0.617,0.691,0.332,1.045
		c-0.373,0.465-0.996,0.615-1.512,0.91c-0.475,0.27-0.439,0.963,0.061,1.178c1.045,0.449,2.168,0.416,3.299,0.426
		c5.266,0.049,10.317-1.383,15.459-2.193c0.808-0.127,2.176-0.537,2.467-0.146c0.328,0.506-3.064,1.266-4.652,1.668
		c-4.711,1.195-9.48,2.096-14.311,2.67c-1.041,0.125-2.071,0.332-3.055,0.693c-1.807,0.664-3.652,0.922-5.557,1.033
		c-3.412,0.201-6.814,0.592-10.229,0.727c-1.413,0.057-2.84-0.379-4.268-0.525c-2.376-0.244-4.723-0.812-7.152-0.461
		c-1.925,0.279-3.45-0.436-4.732-1.98c-2.529-3.049-2.592-3.287-0.805-6.717c0.849-1.629,1.628-3.301,2.271-5.021
		c0.908-2.42,1.676-2.776,4.117-2.836c1.559-0.039,3.136,0.101,4.672-0.096c2.256-0.287,4.498-0.734,6.719-1.234
		c5.215-1.173,10.352-2.623,15.322-4.612c1.336-0.534,2.625-1.185,3.957-1.729c0.611-0.25,1.511-0.578,1.999-0.338
		c0.728,0.442-4.374,2.534-6.681,3.521c-2.367,1.014-4.785,1.921-7.221,2.763c-1.994,0.69-4.021,1.283-6.021,1.988
		c-0.303,0.106-0.233,0.562,0.087,0.572c1.694,0.059,3.349-0.413,5.036-0.491c0.286-0.014,0.409,0.373,0.166,0.524
		c-1.791,1.114-3.888,1.415-5.867,2.034c-0.298,0.092-0.254,0.533,0.058,0.553c1.675,0.1,3.313-0.139,4.958-0.488
		c3.518-0.748,7.055-1.406,10.581-2.115c1.178-0.236,2.345-0.527,3.522-0.758c0.34-0.066,0.685-0.109,1.039-0.149
		c0.549-0.062,0.801,0.71,0.301,0.942c-0.215,0.1-0.457,0.143-0.673,0.198c-3.022,0.774-6.06,1.487-9.081,2.264
		c-2.092,0.537-4.176,1.113-6.239,1.744c-0.224,0.068-0.436,0.174-0.642,0.293c-0.839,0.49-0.539,1.787,0.433,1.822
		c0.223,0.008,0.445-0.004,0.649-0.006c1.679-0.018,3.355-0.205,5.033-0.314c0.955-0.061,1.91-0.113,2.986-0.176
		c0.366-0.02,0.523,0.48,0.197,0.65c-0.926,0.48-2.107,0.221-2.811,1.002C48.032,192.398,48.11,192.789,48.397,192.931z"/>
	<path fill="#303030" d="M210.934,98.383c0.495-0.229,0.344-0.979-0.201-1.009c-0.51-0.028-1.01,0.07-1.511,0.164
		c-2.296,0.429-4.591,0.863-6.887,1.293c-0.005,0.002-0.011,0.002-0.016,0.004c-0.663,0.128-0.916-0.846-0.266-1.026
		c0.021-0.005,0.039-0.011,0.059-0.015c4.078-1.019,8.167-1.994,12.239-3.033c0.862-0.221,1.793-0.398,2.473-1.182
		c0.305-0.352,0.017-0.912-0.447-0.869c-2.639,0.243-5.035,1.482-7.624,1.677c-0.633,0.048-0.778-0.876-0.165-1.04
		c0.08-0.021,0.16-0.043,0.236-0.067c3.03-0.948,6.066-1.879,9.099-2.824c0.522-0.162,1.055-0.319,1.445-0.777
		c0.309-0.361-0.005-0.925-0.476-0.863c-3.389,0.442-6.529,1.328-9.688,2.057c-3.451,0.796-6.838,1.868-10.334,2.446
		c-0.641,0.082-0.682-0.217-0.186-0.461c0.758-0.375,1.48-0.863,2.277-1.106c5.047-1.545,10.109-3.032,15.164-4.545
		c3.334-0.997,6.659-2.021,9.998-2.999c1.61-0.472,3.15-0.355,4.705,0.436c0.987,0.502,1.584,1.248,2.137,2.106
		c0.973,1.508,1.891,3.052,2.914,4.524c0.516,0.739,0.539,1.423,0.218,2.195c-0.638,1.529-1.663,2.748-2.887,3.856
		c-1.194,1.081-2.395,2.195-3.375,3.462c-1.05,1.355-2.24,2.089-3.944,2.521c-2.85,0.725-5.756,0.383-8.588,0.889
		c-1.408,0.251-2.877,0.477-4.159,1.061c-3.638,1.659-7.287,1.59-11.091,0.729c-1.97-0.447-4.039-0.504-6.07-0.607
		c-2.34-0.12-4.689-0.07-7.031-0.152c-0.355-0.013-0.707-0.104-1.088-0.214c-0.471-0.135-0.531-0.807-0.078-0.99
		c0.365-0.147,0.756-0.081,1.104-0.089c3.667-0.08,7.334-0.141,11.001-0.201c0.69-0.012,1.358-0.08,2.038-0.327
		c0.532-0.192,0.42-0.987-0.146-1.024c-0.489-0.034-0.971-0.048-1.427-0.178c-0.516-0.146-0.519-0.877-0.004-1.024
		C203.922,100.15,207.625,99.911,210.934,98.383z"/>
	<path fill="#303030" d="M164.503,35.999c1.286-1.547,2.579-3.089,3.856-4.644c0.951-1.157,1.977-2.268,2.797-3.513
		c1.385-2.102,0.133-4.384-2.4-4.421c-0.446-0.007-0.994,0.374-1.332,0.731c-1.025,1.088-1.965,2.256-2.951,3.383
		c-0.221,0.252-0.764,0.65-0.971,0.537c-0.337-0.26,1.684-3.393,2.092-4.051c1.031-1.664,0.422-2.916-0.862-4.096
		c-1.028-0.943-1.395-0.998-2.435-0.103c-0.298,0.257-1,0.851-1.148,0.613c-0.074-0.115,0.529-0.991,0.758-1.503
		c0.357-0.809,0.066-1.503-0.809-1.567c-0.662-0.049-1.418,0.132-2.012,0.441c-0.824,0.431-1.571,1.01-2.414,1.479
		c-0.127,0.07-0.271-0.067-0.213-0.2c0.392-0.887,1.182-1.514,1.782-2.368c0.271-0.385,0.097-0.927-0.34-1.101
		c-1.481-0.59-2.795-1.713-4.399-0.564c-0.145,0.104-0.353,0.021-0.388-0.154c-0.112-0.558-0.182-1.156-0.44-1.256
		c-0.516-0.196-1.256,0.035-1.847,0.243c-0.538,0.188-1.033,0.5-1.622,0.831c-0.142,0.081-0.312-0.042-0.281-0.202
		c0.094-0.466,0.176-0.878,0.252-1.255c0.062-0.311-0.052-0.627-0.291-0.834c-1.408-1.223-2.826-2.021-4.586-1.174
		c-0.256,0.123-0.527-0.136-0.408-0.395c0.649-1.407,1.43-2.645,2.416-3.724c0.391-0.428,1.16-0.622,1.783-0.701
		c1.477-0.187,2.997-0.244,4.459-0.052c4.257,0.561,8.578,0.134,12.562-1.465c1.801-0.723,3.818-0.902,5.775-1.014
		c0.859-0.049,1.769,0.223,2.609,0.494c1.529,0.494,2.416,1.54,2.881,3.151c0.629,2.179,1.492,4.296,2.353,6.399
		c0.382,0.934,1.015,1.763,1.51,2.653c0.879,1.58,0.727,2.347-0.312,3.77c-2.298,3.146-4.935,5.993-7.597,8.815
		c-2.139,2.269-4.387,4.435-6.6,6.633c-0.233,0.232-0.553,0.38-0.832,0.566C164.361,36.756,164.233,36.404,164.503,35.999z"/>
	<path fill="#303030" d="M103.002,268.24c0.848-0.799,1.735-1.68,2.901-2.775c0.56-0.449,0.464,0.703-0.058,1.365
		c-0.177,0.225-0.387,0.455-0.544,0.707c-0.372,0.598-0.913,1.186-0.487,1.955c0.273,0.494,1.6,0.621,2.316,0.008
		c1.496-1.279,2.931-2.652,4.248-4.115c0.902-1.002,1.567-2.217,2.662-3.201c0.729-0.609-0.332,1.32-0.642,1.904
		c-0.702,1.326-1.483,2.609-2.253,3.898c-0.438,0.734-0.799,1.473-0.686,2.346c0.053,0.414,0.484,0.686,0.86,0.506
		c0.339-0.162,0.604-0.463,0.897-0.754c3.037-3.012,5.08-6.652,6.766-10.529c0.223-0.514,0.428-1.311,0.855-1.459
		c1.014-0.314-0.447,3.787-1.326,5.418c-1.246,2.314-2.76,4.486-4.168,6.713c-0.385,0.607-0.838,1.174-1.188,1.799
		c-1.288,2.295-3.332,3.365-5.854,3.633c-1.014,0.107-2.05,0.197-3.058,0.104c-3.096-0.287-5.758,0.797-8.317,2.367
		c-1.789,1.096-3.585,2.199-5.467,3.117c-2.162,1.057-4.395,1.416-6.52-0.16c-0.299-0.223-0.641-0.387-1-0.482
		c-1.717-0.447-2.75-1.598-3.529-3.166c-0.981-1.977-1.105-4.014-0.785-6.117c0.123-0.812,0.588-1.432,1.486-1.605
		c0.94-0.184,1.867-0.533,2.811-0.576c1.414-0.064,2.582-0.643,3.582-1.51c4.307-3.73,8.962-7.066,12.8-11.33
		c1.284-1.426,2.675-2.758,4.044-4.104c0.503-0.494,1.084-0.91,1.629-1.363c0.357-0.367,0.588-0.287,0.335,0.223
		c-0.249,0.549-0.407,1.166-0.763,1.633c-1.926,2.527-3.931,4.994-5.838,7.535c-0.207,0.275-0.387,0.572-0.544,0.887
		c-0.312,0.625,0.501,1.205,0.991,0.705c0.491-0.498,0.93-1.064,1.439-1.561c0.527-0.512,1.352,0.16,0.945,0.773
		c-0.082,0.125-0.164,0.252-0.234,0.381c-0.592,1.098-1.195,2.203-1.624,3.367c-0.233,0.633-0.218,1.348,0.397,1.803
		c0.174,0.129,0.412,0.16,0.606,0.066c1.259-0.619,1.8-2.018,2.858-3.098c0.412-0.422,1.181-0.059,1.047,0.516
		c-0.01,0.041-0.022,0.078-0.04,0.113c-0.373,0.748-0.909,1.412-1.306,2.152c-0.277,0.514-0.441,1.088-0.652,1.639
		C102.504,268.214,102.808,268.421,103.002,268.24z"/>
	<path fill="#303030" d="M175.366,145.206c0-0.467,0.527-0.132,0.73-0.081c4.535,1.146,9.142,1.139,13.768,0.905
		c0.898-0.045,1.802,0.02,2.703,0.008c0.652-0.008,1.494,0.09,1.693-0.659c0.043-0.162-0.012-0.35-0.113-0.562
		c-0.285-0.594,0.074-1.286,0.727-1.37c2.068-0.265,4.156-0.089,6.199-0.278c0.455-0.042,0.824-0.388,0.882-0.842l0.002-0.015
		c0.058-0.454-0.208-0.885-0.642-1.03c-2.953-0.997-6.018-2.03-9.077-3.08c-0.681-0.153-1.29-0.745-0.402-0.722
		c1.424,0.186,2.621,0.326,3.813,0.501c2.547,0.372,5.082,0.87,7.641,1.12c3.336,0.324,6.557-0.503,9.738-1.393
		c1.322-0.37,2.594-0.919,3.896-1.361c2.89-0.982,6.264-0.354,7.715,3.281c0.465,1.165,1.496,2.152,2.02,3.128
		c0.795,1.481,1.815,2.814,3.053,3.952c1.912,1.762,1.051,4.512-1.32,4.812c-1.723,0.219-3.459,0.419-5.193,0.451
		c-3.293,0.061-6.607,0.219-9.876-0.074c-3.927-0.352-7.825-1.077-11.716-1.748c-1.817-0.313-3.576-0.957-5.39-1.311
		c-1.579-0.308-3.194-0.438-4.798-0.615c-4.818-0.532-9.711-0.484-14.428-1.801C176.377,146.252,175.518,146.255,175.366,145.206z"
		/>
	<path fill="#303030" d="M188.862,189.843c-1.053-0.492-2.105-0.984-3.158-1.475c-0.297-0.139-0.182-0.586,0.145-0.564
		c2.676,0.174,5.369,1.096,8.057,0.119l0,0c0.65-0.336,0.025-1.029-0.854-1.188c-0.758-0.137-1.83-0.271-2.58-0.441
		c-3.496-0.789-6.972-1.663-10.463-2.471c-0.543-0.126-0.746-0.185-0.799-0.754c0.047-0.619,2.854,0.148,4.292,0.392
		c4.442,0.751,8.913,1.152,13.421,0.942c0.377-0.018,0.75-0.143,1.111-0.273c0.477-0.173,0.5-0.833,0.042-1.046
		c-0.588-0.271-1.394-0.233-1.36-1.18l0,0c0.46-0.925,3.002,0.25,4.117-1.21l0,0c0.088-0.74-1.635-0.796-2.5-0.874
		c-3.146-0.287-6.051-1.437-8.979-2.497c-0.285-0.103-0.491-0.424-0.62-0.984c-0.042-0.45,1.695,0.147,2.513,0.347
		c4.123,1.004,8.315,1.139,12.519,0.96c1.608-0.069,3.21-0.394,4.805-0.661c2.489-0.417,4.687,1.151,5.017,3.616
		c0.214,1.601,0.351,3.221,0.715,4.788c0.238,1.025,0.673,2.076,1.283,2.926c0.879,1.225,1.17,1.805,0.84,2.734
		c-0.291,0.814-0.936,1.455-1.723,1.809c-1.5,0.674-3.352,0.828-4.708,1.387c-1.258,0.518-2.378,1.367-3.573,2.043
		c-1.793,1.014-3.728,0.979-5.305-0.143c-2.273-1.617-4.775-1.822-7.224-1.328c-2.444,0.494-4.474-0.256-6.604-1.035
		c-1.286-0.473-2.566-0.967-3.874-1.371c-3.486-1.08-6.99-2.109-10.48-3.18c-0.342-0.105-1.178-0.375-1.112-0.623
		c0.126-0.809,1.437-0.303,2.031-0.188c2.649,0.514,5.296,1.051,7.942,1.582c0.994,0.199,1.955,0.4,2.994,0.023
		c0.515-0.186,1.18,0.07,1.777,0.078c0.75,0.01,1.504-0.148,2.255-0.105C188.913,190.001,188.944,189.88,188.862,189.843z"/>
	<path fill="#303030" d="M73.487,248.509c-0.205,1.15-1.332,1.725-1.672,2.689c-0.159,0.455,0.109,0.965,0.586,1.049
		c0.613,0.107,1.204-0.191,1.76-0.547c1.258-0.803,2.475-1.674,3.68-2.496c0.172-0.133,0.287-0.127,0.334-0.021
		c0.161,0.357,0.251,0.746,0.453,1.082c0.768,1.285,1.148,1.148,2.727-0.057c0.945-0.721,1.849-1.498,2.798-2.215
		c0.719-0.543,1.461-1.057,2.296-1.641c0.259-0.182,0.61,0.078,0.498,0.373c-0.189,0.508-0.545,0.852-0.787,1.234
		c-0.328,0.521-0.42,0.939-0.17,1.262c0.248,0.32,0.729,0.371,1.079,0.166c2.431-1.416,4.122-3.668,6.176-5.537
		c0.171-0.156,0.438,0.01,0.388,0.236c-0.348,1.553-1.807,2.455-2.642,3.689c-0.616,0.91,0.388,2.006,1.346,1.469
		c0.06-0.035,0.119-0.068,0.179-0.105c3.424-2.129,6.698-4.461,9.658-7.205c0.741-0.688,1.313-1.555,2.004-2.303
		c0.536-0.58,1.134-1.104,1.704-1.652c0.39-0.432,0.647-0.354,0.39,0.279c-0.19,0.451-0.327,0.934-0.58,1.346
		c-1.585,2.594-3.706,4.723-6.053,6.6c-3.359,2.689-6.444,5.744-10.277,7.822c-0.777,0.422-1.451,1.074-2.083,1.709
		c-1.117,1.123-2.41,1.965-3.864,2.543c-2.67,1.064-4.647,3.154-7.02,4.654c-1.513,0.957-3.059,1.902-4.694,2.613
		c-1.645,0.715-3.241,0.562-4.95-0.406c-3.367-1.906-5.222-5.213-7.804-7.834c-1.282-1.303-0.298-4.02,1.288-5.232
		c0.832-0.639,1.797-1.178,2.787-1.535c2.809-1.012,5.51-2.283,7.98-3.959c1.734-1.176,3.603-2.152,5.448-3.189
		c0.573-0.322,1.144,0.475,0.63,0.885c-0.084,0.066-0.175,0.127-0.264,0.186c-2.262,1.475-4.538,2.926-6.815,4.377
		c-0.521,0.332-1.053,0.648-1.561,1.016c-0.247,0.18-0.114,0.592,0.19,0.566c0.773-0.062,1.442-0.49,2.113-0.809
		c0.758-0.357,1.45-0.859,2.266-1.4C73.23,248.064,73.533,248.248,73.487,248.509z"/>
	<path fill="#303030" d="M165.347,245.087c-0.279-0.342,0.095-0.838,0.509-0.682c0.815,0.309,0.965,0.629,1.738,1.242
		c0.816,0.641,1.285,1.121,1.822,1.514c0.705,0.512,1.668,0.479,2.35-0.064l0.027-0.021c0.885-0.703,1.008-2.025,0.23-2.848
		c-2.096-2.221-4.708-3.781-6.893-5.764c-0.898-1.014,0.158-1.076,1.168-0.205c1.559,1.121,3.102,2.266,4.651,3.4
		c0.845,0.619,1.692,1.238,2.597,1.896c0.482,0.354,1.15-0.162,0.894-0.701c-0.179-0.373-0.47-0.664-0.774-0.939
		c-1.158-1.045-2.397-2.006-3.521-3.086c-2.765-2.664-5.483-5.373-8.211-8.074c-0.108-0.105-0.562-0.539-0.241-0.795
		c0.786-0.453,1.287,0.301,1.754,0.748c1.956,1.865,3.874,3.773,5.877,5.588c2.136,1.934,4.428,3.633,7.012,4.988
		c1.611,0.846,3.01,2.145,4.389,3.369c0.542,0.482,1.072,1.311,1.088,1.994c0.073,3.223,0.749,6.432,0.113,9.686
		c-0.323,1.658-1.232,2.803-2.697,2.984c-4.473,0.557-8.514,2.447-12.726,3.799c-3.68,1.178-6.673-0.131-9.411-2.42
		c-2.389-1.998-4.725-4.059-7.071-6.107c-2.077-1.812-4.149-3.633-6.196-5.482c-0.434-0.393-0.828-0.826-1.034-1.391
		c-0.154-0.42,0.358-0.773,0.699-0.48c0.589,0.506,1.179,1.012,1.722,1.562c3.063,3.115,6.793,5.305,10.453,7.594
		c0.256,0.16,0.516,0.277,0.782,0.303c0.573,0.053,0.873-0.676,0.44-1.057c-2.201-1.941-5.683-4.865-5.369-5.328
		c0.4-0.512,1.076,0.271,1.501,0.602c1.471,1.139,2.913,2.316,4.39,3.449c1.197,0.92,2.416,1.805,4.078,1.531
		c0.662-0.109,1.387-0.119,1.596-0.91c0.188-0.713-0.186-1.258-0.717-1.727c-2.65-2.346-5.299-4.695-7.932-7.062
		c-0.789-0.709-2.498-2.232-2.346-2.691c0.172-0.66,0.922,0.17,1.313,0.504c2.866,2.447,5.76,4.863,8.659,7.271
		c0.391,0.324,0.818,0.604,1.272,0.83c1.849,0.924,2.229,1.092,3.449,0.137c0.557-0.436,0.641-1.254,0.19-1.797
		c-0.898-1.086-1.898-2.08-2.893-3.096c-1.182-1.205-2.847-2.027-3.517-3.689c-0.093-0.23,0.159-0.443,0.366-0.305
		c0.413,0.277,0.841,0.537,1.222,0.852c1.753,1.455,3.472,2.949,5.241,4.385c0.426,0.346,0.862,0.785,1.596,0.779
		c0.277-0.002,0.437-0.322,0.279-0.551C168.215,247.298,166.489,246.492,165.347,245.087z"/>
	<path fill="#303030" d="M123.284,265.458c0.957,1.51,1.883,3.039,2.893,4.514c0.775,1.133,1.651,2.201,2.527,3.264
		c0.258,0.312,0.637,0.594,1.018,0.725c0.348,0.119,0.886,0.158,1.125-0.035c0.187-0.15,0.173-0.775,0.022-1.078
		c-1.071-2.145-2.214-4.256-3.304-6.393c-0.159-0.312-0.283-0.645-0.373-0.992c-0.087-0.338,0.302-0.588,0.57-0.363
		c0.674,0.561,1.012,1.375,1.501,2.064c1.142,1.609,2.224,3.268,3.472,4.789c0.078,0.096,0.15,0.18,0.219,0.254
		c0.744,0.812,2.028-0.133,1.486-1.092c-0.447-0.791-0.891-1.576-1.332-2.361c-0.27-0.387-0.085-0.879,0.242-0.75
		c0.32,0.105,0.701,0.562,0.883,0.783c0.533,0.643,0.943,1.385,1.438,2.062c0.551,0.754,0.9,1.008,1.659,1.047
		c0.372,0.02,0.696-0.256,0.751-0.623l0.07-0.461c0.041-0.264,0.358-0.41,0.6-0.258c0.281,0.18,0.559,0.354,0.855,0.541
		c0.331,0.209,0.754-0.082,0.676-0.465c-0.497-2.434-2.299-4.123-3.047-6.262c-0.201-0.576,0.566-0.982,0.915-0.48
		c0.116,0.166,0.2,0.355,0.29,0.531c1.051,2.061,2.582,3.75,4.136,5.418c0.218,0.234,0.483,0.424,0.761,0.607
		c0.386,0.258,0.914,0.004,0.941-0.459c0.05-0.898-0.145-1.365-0.904-2.318c-3.768-3.705-5.982-8.295-8.234-12.857
		c-0.463-0.939-0.983-1.926-0.494-3.266c0.264-0.582,0.574,0.557,0.719,0.824c0.398,0.74,0.783,1.49,1.11,2.264
		c2.653,6.281,6.713,11.607,11.502,16.447c0.542,0.549,1.059,1.123,1.54,1.727c1.322,1.658,2.879,2.879,4.92,3.432
		c3.094,0.836,3.443,1.273,3.244,4.568c-0.144,2.355-0.777,4.596-2.401,6.436c-1.425,1.615-3.175,1.994-5.207,1.477
		c-1.74-0.443-3.205-1.43-4.514-2.549c-2.165-1.852-4.78-2.686-7.346-3.668c-1.618-0.621-3.291-1.115-4.874-1.812
		c-2.295-1.014-4.201-2.52-5.444-4.775c-1.361-2.467-2.792-4.896-4.138-7.373c-0.494-0.91-1.101-1.82-1.065-2.91
		C122.701,265.31,123.114,265.187,123.284,265.458z"/>
	<path fill="#303030" d="M58.973,66.644c0.511,0.38,0.174,1.193-0.461,1.154c-0.356-0.022-0.705-0.066-1.027-0.183
		c-4.904-1.766-9.881-3.308-14.494-5.864c-2.431-1.348-4.432-3.035-6.242-5.048c-2.047-2.274-2.786-4.719,0.229-7.479
		c1.491-1.364,3.096-2.606,4.675-3.872c0.922-0.738,1.845-1.5,2.858-2.094c0.977-0.572,2.018-0.484,3.08,0.051
		c3.901,1.965,7.847,3.844,11.75,5.808c1.28,0.645,2.455,1.495,3.723,2.168c2.432,1.292,4.896,2.519,7.343,3.784
		c0.562,0.291,2.152,0.887,1.979,1.258c-0.275,0.482-2.188-0.312-3.049-0.582c-2.057-0.645-4.105-1.322-6.184-1.886
		c-0.733-0.199-1.555-0.196-2.321-0.124c-1.125,0.107-1.413,0.885-0.651,1.743c0.208,0.233,0.486,0.404,0.743,0.603
		c0.204,0.158,0.092,0.5-0.167,0.496c-1.691-0.021-3.195-1.229-4.873-0.629c-0.325,0.116-0.464,0.52-0.285,0.816
		c0.395,0.662,1.164,0.865,1.787,1.271c0.362,0.235,0.178,0.812-0.254,0.806c-0.668-0.01-1.275-0.299-1.892-0.56
		c-0.767-0.322-1.537-0.646-2.329-0.896c-0.521-0.165-1.201-0.231-1.326,0.457c-0.053,0.285,0.43,0.825,0.791,1.004
		c1.935,0.958,3.914,1.828,5.865,2.753c0.684,0.323,1.353,0.679,2.073,1.057c0.403,0.211,0.304,0.849-0.149,0.88
		c-0.345,0.023-0.651-0.159-0.94-0.269c-2.077-0.786-4.137-1.615-6.214-2.399c-0.728-0.275-1.48-0.496-2.235-0.686
		c-0.396-0.1-0.837-0.166-1.229-0.094c-0.792,0.145-1.033,0.885-0.49,1.473c0.279,0.303,0.635,0.566,1.006,0.748
		c2.798,1.372,5.605,2.727,8.418,4.07C58.703,66.486,58.852,66.554,58.973,66.644z"/>
	<path fill="#303030" d="M116.871,280.783c0.138,0.338,0.409,1.371,0.382,1.938c-0.039,3.002-0.074,5.082-0.195,8.082
		c-0.076,1.916-0.307,3.828-0.406,5.744c-0.02,0.375,0.088,0.756,0.181,1.111c0.065,0.25,0.31,0.43,0.565,0.387
		c0.422-0.068,0.51-0.42,0.553-0.82c0.237-2.203,0.477-4.406,0.713-6.609c0.127-1.176,0.254-2.35,0.381-3.523
		c0.05-0.754,0.289-0.852,0.355,0.008c0.139,2.188,0.281,4.377,0.41,6.564c0.041,0.721-0.025,1.451,0.082,2.158
		c0.048,0.314,0.188,0.615,0.338,0.93c0.145,0.301,0.535,0.398,0.795,0.191c0.646-0.516,0.624-1.256,0.619-1.883
		c-0.016-2.16-0.135-4.322-0.271-6.479l-0.002-0.033c-0.042-0.672,0.959-0.766,1.039-0.096c0.371,3.084,0.384,6.244,1.672,9.105
		c0.254,0.561,1.09,0.445,1.201-0.16l0.273-1.482c0.099-0.533,0.861-0.588,1.012-0.068c0.073,0.25,0.078,0.533,0.104,0.805
		c0.117,1.252,0.213,2.506,0.377,3.752c0.019,0.139,0.049,0.275,0.09,0.418c0.141,0.51,0.873,0.5,1.009-0.01
		c0.289-1.084,0.271-2.068,0.257-3.049c-0.03-2.164-0.061-4.326-0.123-6.49c-0.039-1.377-0.138-2.754-0.213-4.131
		c-0.114-2.123-0.362-6.568,0.145-6.445c0.87-0.004,0.881,0.924,0.855,1.518c-0.178,4.088,0.378,8.104,1.018,12.129
		c0.366,2.305,0.371,4.664,0.555,6.998c0.179,2.279,0.527,4.518,1.47,6.635c0.265,0.592,0.545,1.285,0.479,1.895
		c-0.216,2.006-0.473,3.4-3.236,3.383c-1.373-0.01-2.756-0.139-4.116-0.34c-2.951-0.438-5.841,0.111-8.746,0.426
		c-1.609,0.172-3.233,0.457-4.789-0.195c-0.646-0.273-1.257-0.695-1.792-1.156c-0.872-0.754-1.038-1.715-0.533-2.768
		c1.462-3.051,2.998-6.068,4.351-9.166c0.635-1.451,1.051-2.988,1.265-4.559c0.549-4.039,0.949-8.1,1.375-12.156
		c0.084-0.809,0.012-1.637,0.012-2.455C116.372,280.238,116.596,280.222,116.871,280.783z"/>
	<path fill="#303030" d="M57.839,212.201c-0.352,0.156-0.204,0.684,0.177,0.643c6.164-0.652,14.016-6.838,14.649-6.492
		c0.562,0.355-2.797,2.449-4.174,3.678c-1.116,0.994-2.286,1.926-3.407,2.955c-0.24,0.221-0.029,0.611,0.289,0.537
		c1.681-0.402,3.219-1.205,4.785-1.92c0.508-0.283,0.594-0.006,0.2,0.326c-0.651,0.543-1.259,1.148-1.96,1.617
		c-3.796,2.547-7.766,4.779-12.039,6.436c-1.979,0.768-3.689,1.865-5.285,3.314c-2.768,2.512-5.972,4.092-9.908,3.979
		c-3.855-0.111-5.035-2.713-4.6-5.959c0.146-1.1,0.594-2.23,1.171-3.186c1.048-1.736,2.235-3.4,3.479-5.006
		c0.938-1.211,2.306-1.859,3.764-2.307c4.236-1.297,8.526-2.451,12.683-3.971c2.734-1,5.281-2.523,7.899-3.838
		c0.509-0.256,0.979-0.609,1.614-0.801c0.509-0.152,0.877,0.479,0.492,0.846c-0.127,0.121-0.25,0.223-0.387,0.305
		c-4.007,2.422-8.13,4.621-12.554,6.195c-0.769,0.273-1.508,0.586-2.208,0.973c-0.93,0.512-0.436,1.906,0.615,1.756
		c0.018-0.002,0.035-0.006,0.053-0.008c1.89-0.223,3.709-0.746,5.42-1.58c0.416-0.203,0.771-0.232,1.371-0.299
		c0.241-0.027,0.389,0.25,0.236,0.439C59.555,211.654,58.635,211.851,57.839,212.201z"/>
	<path fill="#303030" d="M132.638,10.649c-0.103,0.278-0.466,0.325-0.653,0.095c-1.145-1.415-2.493-1.356-3.932-0.999
		c-1.559,0.387-3.133,0.71-4.678,1.139c-1.017,0.282-1.162,0.364-1.552,1.087c-0.116,0.218-0.421,0.241-0.572,0.046
		c-0.144-0.186-0.292-0.357-0.478-0.463c-0.974-0.552-1.889-0.035-2.047,1.112c-0.08,0.584-0.146,1.841-0.41,1.778
		c-0.104-0.002-0.17-1.311-0.38-1.924c-0.111-0.324-0.433-0.804-0.778-0.781c-0.322,0.022-0.537,0.379-0.692,0.66
		c-0.166,0.302-0.185,0.686-0.27,1.047c-0.073,0.332-0.257,0.195-0.328-0.182c-0.524-1.912-0.522-1.92-2.528-1.844
		c-0.188,0.008-0.377,0.021-0.565,0.039c-0.608,0.056-1.097,0.533-1.167,1.142c-0.038,0.327-0.074,0.638-0.109,0.948
		c-0.041,0.444-0.232,0.349-0.354,0.043c-0.159-0.438-0.268-0.909-0.509-1.297c-0.186-0.296-0.6-0.699-0.832-0.654
		c-0.295,0.06-0.696,0.512-0.719,0.818c-0.047,0.645,0.107,1.309,0.209,1.96c0.125,0.818,0.779,2.768,0.496,2.878
		c-0.332,0.138-0.742-0.727-0.872-0.984c-0.401-0.807-0.748-1.64-1.126-2.458c-0.775-1.679-1.236-1.847-3.057-1.16
		c-0.181,0.067-0.416,0.059-0.609,0.015c-0.961-0.221-1.252-0.104-1.152,0.76c0.113,0.998,0.438,1.979,0.727,2.949
		c0.285,0.955,0.832,1.834,1.028,2.972c0.043,0.249-0.273,0.396-0.431,0.2c-2.232-2.774-4.094-5.547-5.719-8.474
		c-0.736-1.326-0.201-2.855,1.223-3.377c3.363-1.232,6.287-3.194,9.192-5.224c2.53-1.768,5.409-2.601,8.47-2.51
		c1.02,0.03,2.008,0.734,3.036,1.041c3.444,1.025,6.459,3.116,10.043,3.858c2.546,0.528,3.054,1.615,2.593,4.196
		C133.051,9.575,132.868,10.031,132.638,10.649z"/>
	<path fill="#303030" d="M199.543,64.549c0.354-0.435,0.709-0.868,1.105-1.354c0.239-0.294,0.268-0.708,0.068-1.029l-0.118-0.192
		c-0.272-0.442-0.339-0.982-0.179-1.478l0.039-0.126c0.158-0.492-0.264-0.974-0.773-0.89c-0.191,0.032-0.369,0.076-0.532,0.151
		c-2.123,0.969-2.702,1.416-4.812,2.416c-0.403,0.19-2.722,1.504-2.879,1.123c-0.087-0.889,0.438-1.143,0.861-1.392
		c2.068-1.22,4.156-2.406,6.236-3.606c1.197-0.69,2.4-1.369,3.579-2.089c0.325-0.198,0.935-0.735,0.71-1.05
		c-0.104-0.278-4.146,1.947-4.312,1.705c-0.14-0.126,2.575-1.947,3.832-2.957c0.747-0.601,1.485-1.217,2.177-1.88
		c0.594-0.569,0.914-1.243,0.976-2.071c0.035-0.468-0.491-0.773-0.892-0.531c-1.324,0.799-2.587,1.561-3.85,2.323
		c-0.479,0.275-0.373-0.013-0.243-0.28c0.175-0.368,0.237-0.853,0.646-0.982c2.117-0.675,3.696-2.429,4.842-4.335
		c1.684-2.803,3.706-3.053,5.822-2.013c2.36,1.158,4.711,2.338,7.056,3.525c1.546,0.783,3.504,4.833,3.106,6.531
		c-0.133,0.562-0.486,1.094-0.823,1.582c-1.347,1.953-3.385,3.019-5.437,4.002c-0.723,0.346-1.635,0.342-2.467,0.408
		c-2.617,0.211-4.932,1.299-7.248,2.404c-1.781,0.85-3.575,1.672-5.378,2.474c-0.233,0.104-0.593,0.149-0.874,0.149
		C199.379,65.124,199.256,64.88,199.543,64.549z"/>
	<path fill="#303030" d="M29.399,129.056c-0.86,0.196-1.736,0.342-2.577,0.6c-1.078,0.332-2.171,0.667-3.178,1.164
		c-0.009,0.004-0.017,0.008-0.024,0.012c-1.115,0.566-0.859,2.281,0.371,2.509c1.27,0.234,2.615,0.029,3.954,0.235
		c0.339,0.053,0.366,0.535,0.04,0.637c-0.754,0.233-1.531,0.475-2.384,0.739c-0.682,0.212-0.868,1.11-0.306,1.551
		c0.145,0.114,0.286,0.197,0.438,0.24c1.255,0.358,2.56,0.749,3.845,0.751c4.314,0.003,8.63-0.161,12.945-0.252
		c0.471-0.01,2.02-0.196,1.998,0.209c0.001,0.385-0.965,0.516-1.225,0.558c-3.496,0.575-6.984,1.231-10.5,1.639
		c-2.713,0.314-5.212,1.114-7.771,2.421c-0.4,0.204-0.306,0.806,0.139,0.878l1.066,0.173c0.283,0.046,0.353,0.463,0.076,0.598
		c-0.942,0.458-1.805,0.439-2.623,0.514c-2.205,0.198-4.488,0.031-6.609,0.547c-3.088,0.75-5.764-0.314-8.527-1.204
		c-1.977-0.636-2.785-2.675-1.666-4.451c2.019-3.204,4.213-6.286,7.059-8.837c1.531-1.37,3.413-1.636,5.361-1.691
		c2.637-0.075,5.273-0.177,7.91-0.221c0.696-0.012,1.396,0.145,2.094,0.225C29.946,128.636,30.094,128.935,29.399,129.056z"/>
	<path fill="#303030" d="M29.09,170.221c1.645,0,3.289-0.001,4.936,0.015c0.998-0.066,1.127,0.18,0.148,0.544
		c-0.721,0.259-1.455,0.523-2.334,0.84c-0.319,0.115-0.344,0.565-0.033,0.705c1.191,0.54,2.27,0.832,3.477,0.582
		c2.756-0.569,5.506-1.165,8.262-1.731c0.541-0.111,2.236-0.43,1.71,0.025c-2.011,1.711-4.825,1.413-7.219,2.757
		c-0.288,0.161-0.191,0.602,0.136,0.646c0.889,0.122,1.637,0.01,2.39-0.154c3.513-0.766,7.043-1.434,10.46-2.606
		c1.02-0.35,2.14-0.734,3.551-0.358c0.791,0.307-0.618,0.626-0.893,0.713c-4.516,1.413-9.035,2.81-13.562,4.187
		c-1.888,0.576-3.757,1.079-5.37,2.382c-0.887,0.718-2.249,0.859-3.364,1.278c-0.982,0.367-1.97,0.717-2.99,0.961
		c-0.898,0.216-1.933,0.578-2.85,0.44c-2.616-0.392-5.12-1.22-7.392-2.597c-0.434-0.263-0.723-0.922-0.871-1.457
		c-0.154-0.562-0.012-1.197-0.084-1.791c-0.232-1.903,0.266-3.542,1.636-4.908c0.252-0.25,0.515-0.532,0.646-0.852
		c0.61-1.482,1.849-1.953,3.286-2.109c1.373-0.148,2.746-0.338,4.124-0.387c4.259-0.153,8.519-0.25,12.778-0.357
		c0.349-0.009,1.578-0.062,1.428,0.268c-0.341,0.63-1.559,0.723-2.261,0.851c-2.829,0.516-5.669,0.981-8.499,1.485
		c-0.446,0.079-0.873,0.257-1.31,0.389C28.718,170.095,28.708,170.201,29.09,170.221z"/>
	<path fill="#303030" d="M113.872,228.798c0.236,1.896-0.377,3.465-0.895,5.047c-0.43,1.312-0.92,2.605-1.326,3.924
		c-0.076,0.246-0.121,0.5-0.16,0.797c-0.076,0.562,0.643,0.936,1.006,0.498c0.029-0.033,0.053-0.07,0.072-0.107
		c0.714-1.375,1.355-2.789,2.01-4.193c0.139-0.299,0.268-0.6,0.4-0.916c0.188-0.447,0.841-0.455,1.007,0
		c0.226,0.617,0.216,1.328,0.54,1.824c0.361,0.551,1.212,0.434,1.424-0.191c0.366-1.076,0.295-2.295,0.554-3.455
		c0.09-0.402,0.663-0.416,0.766-0.018c0.345,1.348,0.505,2.789,1.524,4.01c0.254,0.303,0.751,0.172,0.822-0.217l0.168-0.914
		c0.076-0.418,0.615-0.547,0.873-0.207c0.657,0.861,1.284,1.686,1.904,2.5c0.369,0.484,1.139,0.146,1.032-0.453l0,0
		c-0.513-2.65-1.032-5.299-1.592-7.939c-0.009-0.041-0.018-0.084-0.025-0.123c-0.133-0.674,0.874-0.949,1.063-0.291
		c0.018,0.061,0.03,0.119,0.039,0.18c0.611,4.439,2.369,8.537,3.776,12.736c0.302,0.898,0.901,1.693,1.319,2.557
		c0.592,1.225-0.016,2.604-1.311,3.018c-0.87,0.277-1.689,0.305-2.611-0.029c-2.803-1.014-5.662-1.51-8.576-0.34
		c-3.092,1.24-6.337,1.119-9.57,0.975c-1.729-0.078-2.469-1.199-1.887-2.811c0.242-0.67,0.572-1.336,0.989-1.912
		c2.683-3.701,4.06-8.006,5.673-12.201c0.172-0.447,0.326-0.902,0.509-1.346C113.428,229.105,113.694,228.349,113.872,228.798z"/>
	<path fill="#303030" d="M180.231,61.894c0.496-0.279,0.346-1.025-0.219-1.098c-2.322-0.3-4.441,0.297-6.623,0.391
		c-0.346,0.015-0.59-0.335-0.449-0.651l0.072-0.162c0.102-0.231-0.044-0.499-0.295-0.541c-1.225-0.208-2.41,0.179-3.782,0.384
		c-0.237,0.035-0.358-0.278-0.161-0.414l1.316-0.904c0.63-0.432,0.421-1.433-0.334-1.544c-0.473-0.069-0.963,0.062-1.409,0.147
		c-1.233,0.236-2.424,0.689-3.646,0.995c-1.208,0.302-2.433,0.535-3.651,0.799c-0.562,0.127-0.594-0.033-0.16-0.377
		c0.288-0.185,0.869-0.457,1.183-0.568c2.601-0.928,4.938-1.693,7.487-2.743c2.822-1.164,5.555-2.554,8.318-3.859
		c0,0,0.73-0.408,0.379-0.804c-0.401-0.373-1.363-0.07-1.979,0.144c-0.846,0.295-1.434,0.594-2.166,0.846
		c-3.793,1.305-7.59,2.595-11.39,3.875c-0.204,0.069-0.778,0.333-0.815,0.01c-0.027-0.525,1.066-0.886,1.641-1.125
		c2.984-1.242,5.99-2.433,8.956-3.719c2.581-1.12,5.103-2.376,7.677-3.511c1.971-0.868,3.832-0.266,5.326,0.997
		c1.992,1.686,4.125,3.266,5.16,5.884c0.857,2.167,0.516,3.913-1.539,5.048c-1.466,0.81-3.002,1.51-4.558,2.137
		c-2.503,1.009-5.044,1.92-7.575,2.859c-0.268,0.1-0.789,0.297-0.99-0.113C175.848,63.84,178.729,62.739,180.231,61.894z"/>
	<path fill="#303030" d="M215.333,78.526c0.911-0.316,1.977-0.677,2.692-0.918c0.543-0.184,1.044-0.468,1.48-0.84l0,0
		c0.208-0.178,0.253-0.482,0.11-0.716c-0.867-1.41-0.711-1.427,1.078-2.069c0.832-0.299,1.609-0.775,2.367-1.243
		c0.223-0.138,0.398-0.305,0.498-0.507c0.27-0.538-0.27-1.141-0.859-1.018c-1.02,0.211-2.062,0.428-3.139,0.652
		c-0.73,0.151-1.063-0.893-0.373-1.174c0.145-0.06,0.3-0.109,0.453-0.16c2.102-0.704,4.207-1.4,6.289-2.156
		c0.206-0.074,0.398-0.184,0.586-0.307c0.613-0.404,0.21-1.375-0.506-1.209c-0.117,0.027-0.233,0.059-0.346,0.08
		c-3.476,0.674-6.945,1.381-10.42,2.064c-0.795,0.156-1.602,0.258-2.402,0.385c-0.717,0.125-0.845-0.131-0.125-0.451
		c0.84-0.343,1.662-0.738,2.521-1.02c3.174-1.037,6.375-1.996,9.538-3.066c1.931-0.652,3.802-1.483,5.718-2.182
		c1.688-0.614,3.475-0.556,5.141-0.111c2.171,0.579,4.088,1.654,4.955,3.991c0.368,0.994,1.248,1.898,1.308,2.88
		c0.067,1.099-1.273,1.631-1.919,2.465c-1.463,1.893-3.588,2.472-5.692,3.062c-3.11,0.872-6.245,1.667-9.392,2.401
		c-2.684,0.625-5.396,1.13-8.104,1.658c-0.443,0.086-0.916,0.012-1.377,0.012C214.666,78.95,214.644,78.801,215.333,78.526z"/>
	<path fill="#303030" d="M113.282,57.725c0.281,0.262,0.426,0.64,0.395,1.022c-0.145,1.749-0.268,3.343-0.416,4.934
		c-0.133,1.418-0.254,2.841-0.5,4.24c-0.01,0.054-0.041,0.103-0.092,0.151c-0.457,0.443-1.234,0.052-1.231-0.586
		c0.009-2.599,0.056-7.433-0.86-6.772c-0.894,0.661-0.766,1.42-0.846,2.068c-0.088,0.712-0.036,1.439-0.092,2.157
		c-0.023,0.306-0.057,0.615-0.201,0.886c-0.231,0.43-0.887,0.29-0.951-0.193c-0.164-1.224,0.111-2.446,0.078-3.639
		c-0.016-0.564-0.602-0.941-1.122-0.723c-0.789,0.33-1.058,0.916-1.122,2.096c-0.109,1.974-0.152,3.153-0.279,5.126
		c-0.043,1.024-0.437,1.388-1.055-0.01c-0.52-1.62-0.45-1.404-0.889-2.774c-0.076-0.235-0.176-0.465-0.285-0.688
		c-0.555-1.13-0.926-2.363-2.244-2.893c-0.189-0.076-0.405,0.063-0.402,0.269c0.016,1.005,0.761,1.843,0.859,2.825
		c0.049,0.477-0.559,0.726-0.855,0.35c-0.957-1.206-1.054-2.977-2.295-3.86c-0.287-0.204-0.664,0.097-0.523,0.42
		c0.512,1.165,1.031,2.327,1.523,3.501c0.074,0.177,0.168,0.361,0.233,0.543c0.216,0.602-0.63,1.01-0.995,0.485
		c-0.602-0.863-1.207-1.732-1.811-2.602c-0.363-0.521-0.788-0.831-1.322-0.91c-0.678-0.101-1.209,0.592-1.016,1.25
		c0.502,1.702,0.999,3.39,1.506,5.109c0.233,0.794-0.901,1.273-1.268,0.532c-0.031-0.062-0.061-0.129-0.09-0.198
		c-0.557-1.34-1.15-2.669-1.814-3.958c-0.492-0.954-1.077-1.861-1.69-2.744c-1.181-1.7-1.077-2.611,0.011-4.485
		c0.691-1.19,1.641-1.766,2.819-2.241c0.646-0.26,1.21-0.729,1.802-1.116c2.114-1.388,4.043-3.231,6.856-2.954
		c0.812,0.079,1.683,0.195,2.393,0.559c2.067,1.055,4.095,2.197,6.08,3.401C112.204,56.687,112.745,57.224,113.282,57.725z"/>
	<path fill="#303030" d="M22.836,62.077c-0.557,0.029-1.113,0.047-1.67,0.091c-1.97,0.154-3.941,0.287-5.905,0.502
		c-0.41,0.045-1.067,0.337-1.119,0.807c-0.103,0.921,0.193,1.146,0.543,1.409c0.444,0.277,0.997,0.331,1.458,0.386
		c1.723,0.202,3.451,0.347,5.493,0.544c1.213,0.138-0.649,0.681-0.944,0.744c-1.516,0.331-3.047,0.591-4.573,0.875
		c-0.353,0.066-0.757,0.047-1.045,0.219c-0.321,0.191-0.735,0.548-0.752,0.852c-0.021,0.41,0.189,0.963,0.495,1.229
		c0.422,0.367,1.205,0.525,1.896,0.85c0.556,0.278-0.106,0.598-0.86,0.679c-1.298,0.109-1.906,1.191-2.726,1.925
		c-0.71,0.637-0.63,1.333-0.292,1.971c0.268,0.505,0.218,1.134-0.145,1.576c-0.879,1.072-1.848,1.181-3.264,0.492
		c-2.029-0.986-3.885-2.257-6.052-3.052c-1.938-0.71-2.76-2.748-3.272-4.695c-0.418-1.582,0.54-2.883,1.228-4.177
		c0.212-0.397,0.856-0.606,1.342-0.808c1.972-0.813,3.743-1.975,5.122-3.559c1.248-1.438,2.686-1.663,4.365-1.355
		c2.707,0.496,5.406,1.031,8.114,1.527c0.853,0.157,1.718,0.247,2.576,0.367C24.29,61.663,23.735,62.09,22.836,62.077z"/>
	<path fill="#303030" d="M31.368,50.488c-1.658-0.38-3.276-1.159-4.996-0.543c-0.382,0.138-0.574,0.587-0.4,0.954
		c0.209,0.443,0.658,0.68,1.101,0.917c1.005,0.535,2.024,1.041,3.015,1.6c0.5,0.282,1.459,0.756,1.354,1.323
		c-0.129,0.33-0.738,0.078-1.065-0.017c-0.755-0.218-1.507-0.456-2.227-0.771c-0.331-0.146-0.638-0.226-0.93-0.196
		c-0.709,0.072-0.927,1.004-0.396,1.479c2.058,1.843,4.913,2.316,7.638,3.647c0.629,0.296-0.993,0.311-1.292,0.296
		c-2.515-0.126-5.036-0.205-7.541-0.444c-4.55-0.436-8.508-2.366-12.074-5.13c-1.449-1.122-1.971-2.84-2.292-4.544
		c-0.223-1.178,1.303-3.182,2.61-3.788c2.086-0.967,4.282-1.52,6.568-1.676c0.571-0.04,1.315-0.033,1.714,0.285
		c2.924,2.344,6.199,4.118,9.43,6.097C31.853,50.143,31.678,50.56,31.368,50.488z"/>
	<path fill="#303030" d="M111.833,276.921c0.938-0.109,0.576,1.889,0.41,2.693c-0.613,2.959-1.793,5.672-3.631,8.086
		c-0.346,0.453-0.73,0.893-0.93,1.451c-0.194,0.543,0.363,1.066,0.897,0.848c0.435-0.178,0.765-0.568,1.087-0.912
		c1.312-1.396,2.109-3.098,2.687-4.908c0.182-0.57,1.027-0.473,1.071,0.125c0.011,0.131,0.006,0.27,0.001,0.406
		c-0.049,1.18-0.169,2.357-0.188,3.537c-0.049,3.121-0.681,6.105-2.044,8.92c-0.918,1.898-2.604,3.18-3.934,4.746
		c-0.229,0.27-0.924,0.193-1.403,0.191c-1.522-0.004-2.729-0.645-3.38-2.035c-0.807-1.723-1.617-3.457-1.42-5.465
		c0.114-1.16,0.623-2.012,1.6-2.613c2.4-1.479,4.129-3.582,5.568-5.965c1.497-2.479,2.435-4.836,3.129-7.637
		C111.506,277.804,111.442,277.005,111.833,276.921z"/>
	<path fill="#303030" d="M177.557,31.856c0.211-0.244,0.019-0.638-0.304-0.6c-0.787,0.092-1.413,0.502-2.041,1.002
		c-1.549,1.232-2.875,2.106-4.481,3.265c-0.447,0.323-1.262,0.816-1.758,1.073c-0.525,0.224-0.568-0.055-0.256-0.363
		c1.09-1.158,2.093-2.416,3.285-3.457c3.885-3.388,7.82-6.719,11.777-10.021c1.27-1.059,2.279-0.783,3.396,0.479
		c0.878,0.991,1.146,2.211,1.562,3.377c0.312,0.873-0.168,1.539-0.861,2.095c-0.753,0.602-1.521,1.185-2.243,1.821
		c-2.988,2.63-5.857,5.393-8.773,8.103c-0.15,0.141-0.814,0.673-0.633,0.225c1.613-2.604,3.891-4.647,5.865-6.927
		c0.49-0.566-0.213-1.402-0.849-1.005c-0.006,0.003-0.011,0.007-0.017,0.011c-1.807,1.143-3.292,1.742-5.094,3.447
		c-0.776,0.662-1.88,1.207-1.082,0.374C175.99,33.669,176.768,32.77,177.557,31.856z"/>
	<path fill="#303030" d="M84.266,96.944c-0.178-0.475,0.333-0.912,0.768-0.65c0.5,0.302,11.095,10.359,10.177,10.603
		c-0.743,0.133-1.241-0.325-1.685-0.747c-2.871-2.729-5.727-5.473-8.562-8.237C84.688,97.642,84.417,97.346,84.266,96.944z"/>
	<path fill="#303030" d="M155.347,202.316c0.196,0.242-0.081,0.582-0.356,0.438c-2.73-1.443-4.711-3.85-6.992-5.867
		c-0.332-0.295-1.469-1.527-0.756-1.527C148.687,195.886,153.603,200.158,155.347,202.316z"/>
	<path fill="#303030" d="M131.065,253.373c-0.029-0.203,0.251-0.301,0.361-0.125c1.632,2.59,2.986,5.316,4.256,8.086
		c0.092,0.201,0.742,1.91-0.158,0.887C133.833,260.359,131.354,255.431,131.065,253.373z"/>
	<path fill="#303030" d="M165.495,241.779c-0.941,0.41-9.521-7.816-8.783-8.273c0.734-0.279,3.113,2.58,4.537,4.051
		C162.635,238.986,165.994,241.453,165.495,241.779z"/>
	<path fill="#303030" d="M88.149,213.63c0.023-0.357-0.061-0.77,0.091-1.059c0.792-1.51,1.638-2.992,2.481-4.477
		c0.059-0.104,0.121-0.197,0.191-0.275c0.428-0.473,1.18,0.096,0.876,0.656c-0.984,1.82-1.902,3.658-3.187,5.281
		C88.381,214.07,88.147,214.113,88.149,213.63z"/>
	<path fill="#303030" d="M122.508,160.925c0.994,1.737,2.229,5.361,2.467,7.117c0.035,0.258-0.298,0.395-0.451,0.184
		c-1.014-1.387-2.253-4.877-2.484-7.15C122.012,160.808,122.374,160.691,122.508,160.925z"/>
	<path fill="#303030" d="M125.09,286.363c-0.009-0.295,0.404-0.385,0.512-0.111c0.701,1.791,0.59,3.746,0.858,5.617
		c0.055,0.381,0.007,1.928-0.554,1.195C125.044,290.875,125.153,288.611,125.09,286.363z"/>
	<path fill="#303030" d="M84.336,243.097c0.354-0.35,0.996-0.096,0.955,0.4c-0.006,0.07-0.023,0.127-0.061,0.168
		c-1.586,1.795-3.404,3.271-5.699,3.996c-0.24,0.074-0.402-0.254-0.197-0.402c0.959-0.703,1.948-1.371,2.855-2.137
		C82.903,244.523,83.563,243.861,84.336,243.097z"/>
	<path fill="#303030" d="M58.437,192.632c1.022-0.814,2.991-1.326,5.124-1.361c0.297-0.004,0.439,0.369,0.209,0.555
		c-1.019,0.822-3.229,1.209-5.121,1.367C58.336,193.22,58.192,192.828,58.437,192.632z"/>
	<path fill="#303030" d="M40.302,96.437c-1.808,0.603-3.443,0.978-5.229,0.896c-0.238-0.011-0.355-0.31-0.17-0.461
		c1.167-0.956,3.205-1.328,5.368-0.948C40.539,95.971,40.56,96.352,40.302,96.437z"/>
	<path fill="#303030" d="M68.358,149.516c1.575-0.267,3.088-0.522,4.67-0.79c0.4-0.067,0.611,0.458,0.275,0.688
		c-0.767,0.525-1.974,0.826-3.869,1.032c-0.414,0.045-1.016,0.351-1.359-0.398C67.971,149.822,68.114,149.557,68.358,149.516z"/>
	<path fill="#303030" d="M136.806,86.987c-0.342,0-0.464-2.998-0.234-4.225c0.075-0.397,0.608-0.472,0.798-0.113
		c0.246,0.465,0.271,1.217,0.249,1.572C137.545,85.365,137.555,86.987,136.806,86.987z"/>
	<path fill="#303030" d="M86.409,26.86c1.346,0.994,2.082,1.945,2.701,3.12c0.109,0.207-0.102,0.434-0.316,0.341
		c-1.223-0.525-2.39-1.938-2.65-3.291C86.114,26.881,86.286,26.771,86.409,26.86z"/>
	<path fill="#303030" d="M36.928,170.415c-0.238-0.716,4.926-1.527,5.229-1.112C42.601,169.966,37.18,171.044,36.928,170.415z"/>
	<path fill="#303030" d="M107.387,264.738c-0.176,0.111-0.4-0.051-0.344-0.252c0.375-1.359,1.377-2.107,2.344-3.027
		c0.678-0.477,0.393,0.527,0.351,0.672C109.483,262.996,108.584,263.992,107.387,264.738z"/>
	<path fill="#303030" d="M89.886,118.247c0.927-0.314,1.821-0.608,2.808-0.461c0.24,0.035,0.34,0.346,0.16,0.508
		c-0.788,0.706-1.952,0.904-2.971,0.517C89.619,118.71,89.62,118.337,89.886,118.247z"/>
	<path fill="#303030" d="M107.026,74.474c-0.422,0.076-1.395-3.021-0.879-3.202C106.938,71.166,107.42,74.397,107.026,74.474z"/>
	<path fill="#303030" d="M203.391,120.09c0.002,0.49-2.232,0.33-3.508,0.396c-0.283,0.015-0.449-0.315-0.273-0.539
		c0.889-1.14,3.783-0.611,3.783,0.137C203.393,120.087,203.392,120.087,203.391,120.09z"/>
	<path fill="#303030" d="M106.383,192.787c0.033,0.811-0.298,1.508-0.679,2.244c-0.22,0.426-0.873,0.299-0.903-0.18
		c-0.038-0.602,0.265-1.166,0.333-1.711c0.052-0.406,0.274-0.732,0.69-0.807C106.106,192.285,106.373,192.501,106.383,192.787z"/>
	<path fill="#303030" d="M103.304,257.773c0.388-1.166,0.775-1.627,1.64-1.953c0.219-0.082,0.442,0.127,0.383,0.354
		c-0.289,1.102-0.763,1.688-1.663,1.977C103.44,258.22,103.23,257.996,103.304,257.773z"/>
	<path fill="#303030" d="M132.175,267.037c-0.675-0.637-1.116-1.33-1.339-2.201c-0.074-0.291,0.26-0.51,0.512-0.344
		c0.865,0.576,1.371,1.408,1.386,2.297C132.738,267.08,132.387,267.238,132.175,267.037z"/>
	<path fill="#303030" d="M110.187,197.953c-0.161,0.311-0.628,0.205-0.651-0.145c-0.072-1.021,0.167-1.99,0.571-3.061
		c0.278-0.717,0.636,0.486,0.707,0.744C110.952,195.99,110.635,197.091,110.187,197.953z"/>
	<path fill="#303030" d="M187.182,142.135c0.229-0.437,3.852,0.268,3.852,0.973C190.804,143.811,186.947,142.786,187.182,142.135z"
		/>
	<path fill="#303030" d="M63.645,208.134c-0.32-0.572,3.352-2.75,3.734-2.4C67.893,206.195,64.008,208.714,63.645,208.134z"/>
	<path fill="#303030" d="M165.715,157.383c0.215-0.479,3.65,0.515,3.65,1.066C169.292,159.018,165.514,157.977,165.715,157.383z"/>
	<path fill="#303030" d="M131.118,44.466c0.201,0.886,0.008,1.609-0.391,2.336c-0.135,0.247-0.514,0.201-0.588-0.07
		c-0.318-1.16-0.171-1.939,0.467-2.458C130.788,44.126,131.067,44.237,131.118,44.466z"/>
	<path fill="#303030" d="M148.286,246.435c0.346-0.586,2.309,1.635,2.151,1.938c-0.29,0.389-0.783,0.084-1.167-0.154
		C148.776,247.914,148.012,246.81,148.286,246.435z"/>
	<path fill="#303030" d="M192.199,180.884c0.121-0.492,3.194,0.512,2.919,0.918C194.795,182.163,192.063,181.4,192.199,180.884z"/>
	<path fill="#303030" d="M145.776,40.663c0.562,0-0.191,2.832-0.684,2.753C144.708,43.335,144.977,40.663,145.776,40.663z"/>
	<path fill="#303030" d="M66.362,60.483c-0.369,0.411-2.717-1.211-2.377-1.653C64.329,58.44,66.676,59.955,66.362,60.483z"/>
	<path fill="#303030" d="M97.624,163.78c-0.252-0.185,0.58-2.246,1.055-2.246C99.18,161.534,98.22,164.22,97.624,163.78z"/>
	<path fill="#303030" d="M151.055,86.921c-0.481-0.501,0.99-2.635,1.427-2.275C152.815,84.969,151.47,87.296,151.055,86.921z"/>
	<path fill="#303030" d="M113.795,281.695c-0.443-0.305,0.224-2.77,0.512-2.658C114.948,279.279,114.131,281.886,113.795,281.695z"
		/>
	<path fill="#303030" d="M173.004,64.69c0,0.35-2.017,1.278-2.164,0.99C170.475,64.912,173.004,64.448,173.004,64.69z"/>
	<path fill="#303030" d="M169.502,187.966c-0.42,0.359-2.309-0.744-2.076-1.02C167.787,186.453,169.788,187.542,169.502,187.966z"/>
	<path fill="#303030" d="M193.913,101.449c0-0.49,2.328-0.384,2.328,0C196.241,101.855,193.913,102.005,193.913,101.449z"/>
	<path fill="#303030" d="M96.934,239.808c0.453,0.221-1.163,2.334-1.28,1.773C95.595,240.728,96.62,239.677,96.934,239.808z"/>
	<path fill="#303030" d="M160.981,39.716c0.016-0.185,1.283-1.968,1.511-1.703c0.361,0.452-0.346,1.656-1.08,2.066
		C160.959,40.364,160.674,40.199,160.981,39.716z"/>
	<path fill="#303030" d="M112.337,46.582c-0.464,0.099-0.704-2.19-0.271-2.303C112.53,44.199,112.787,46.488,112.337,46.582z"/>
	<path fill="#303030" d="M121.74,281.812c0.353,0,0.661,2.09,0.27,2.09C121.569,283.902,121.495,281.812,121.74,281.812z"/>
	<path fill="#303030" d="M172.389,38.181c0.6-0.232-0.488,1.024-1.033,1.325c-0.465,0.217-0.368-0.165-0.152-0.423
		C171.608,38.681,171.591,38.673,172.389,38.181z"/>
	<path fill="#303030" d="M182.968,181.308c-0.366-0.157-0.732-0.315-1.1-0.473c-0.401-0.177-0.327-0.4,0.095-0.266
		c0.396,0.112,0.79,0.225,1.186,0.338C183.505,181.043,183.377,181.405,182.968,181.308z"/>
	<path fill="#303030" d="M98.919,20.281c-1.271-2.971-2.689-5.786-4.695-8.255c-0.237-0.292-0.703-0.684-1.024-0.879
		c-1.742-1.061-3.479-2.129-5.258-3.126c-1.419-0.796-2.883-1.498-4.572-1.507c-0.781-0.004-1.561,0.008-2.339-0.047
		c-4.179-0.289-8.356-0.593-12.532-0.915c-0.411-0.032-0.812-0.202-1.217-0.316c-3.125-0.888-5.932-0.383-8.271,1.969
		c-0.927,0.932-1.739,1.975-2.643,2.931c-1.104,1.167-2.258,2.286-3.372,3.444c-0.699,0.728-1.625,1.381-1.989,2.259
		c-0.634,1.528-1.063,3.183-1.304,4.824c-0.371,2.524,1.104,4.505,2.545,6.292c1.955,2.425,4.198,4.617,6.323,6.905
		c0.859,0.924,1.712,1.857,2.61,2.742c0.107,0.104,0.261,0.23,0.412,0.348l0,0c0,0,0.322,0.238,0.562,0.094
		c0,0,0.284-0.131,0.109-0.572c-0.055-0.098-0.102-0.2-0.162-0.295c-0.002-0.004-0.004-0.007-0.006-0.01
		c-0.973-1.52-2.547-2.676-3.582-4.406c-0.359-0.604,0.348-1.309,0.938-0.929c0.012,0.007,0.022,0.015,0.033,0.021
		c0.785,0.546,1.55,1.14,2.246,1.796c4.283,4.027,8.539,8.087,12.819,12.117c1.223,1.151,2.489,2.257,3.759,3.356
		c0.232,0.202,0.488,0.378,0.748,0.549c0.129,0.081,0.398,0.228,0.518,0.132c0,0,0.258-0.176-0.133-0.713
		c-0.024-0.028-0.047-0.06-0.073-0.086c-3.157-3.216-6.341-6.403-9.482-9.635c-1.63-1.678-3.208-3.408-4.772-5.15
		c-0.583-0.65-0.98-1.361-0.729-2.167c0.148-0.474,0.705-0.697,1.16-0.5c1.58,0.686,3.641,3.053,4.039,2.871
		c0.195-0.168-1.07-1.536-1.588-2.26c-0.363-0.509-0.774-0.821-1.07-1.64c-0.119-0.33,0.254-0.622,0.543-0.422l1.717,1.188
		c0.145,0.1,0.324-0.056,0.254-0.214c-0.369-0.823-0.839-1.518-1.196-2.267c-0.06-0.124-0.063-0.275-0.043-0.438
		c0.063-0.506,0.555-0.851,1.059-0.775c0.151,0.023,0.296,0.061,0.425,0.126c0.409,0.208,0.717,0.627,1.051,0.972
		c1.547,1.594,3.08,3.202,4.637,4.785c0.479,0.486,1.019,0.91,1.53,1.363c0.337,0.256,0.571,0.225,0.295-0.246
		c-0.301-0.481-0.573-0.983-0.906-1.441c-1.303-1.798-2.616-3.589-3.942-5.369c-0.645-0.863-0.962-1.781-0.699-2.862
		c0.299-1.228,1.314-1.802,2.445-1.264c0.58,0.277,1.154,0.676,1.578,1.155c0.99,1.119,1.889,2.318,2.822,3.488
		c1.621,2.032,3.239,4.067,4.859,6.102c0.469,0.47,0.521,0.299,0.351-0.227c-0.224-0.465-0.501-0.976-0.789-1.396
		c-1.697-2.472-3.311-4.917-5.03-7.374c-0.412-0.59-0.901-1.134-1.252-1.757c-0.623-1.105-0.379-2.778,0.406-3.286
		c1.006-0.651,2.157-0.449,3.174,0.602c0.457,0.472,0.854,1.003,1.281,1.503c1.062,1.243,4.014,4.358,3.491,3.354
		c-0.818-1.39-2.384-4.166-3.113-5.602c-0.286-0.564-0.369-1.266,0.405-1.725c1.795-1.064,4.733-0.656,6.045,0.957
		c1.248,1.536,2.415,3.139,3.619,4.709c0.247,0.321,0.598,0.762,1.143,0.605c0.045-0.033,0.098-0.133-0.082-0.449l-0.726-1.275
		c-0.845-1.451-1.765-2.865-2.521-4.361c-0.564-1.113-0.172-2.013,0.812-2.352c2.156-0.745,3.642-0.346,5.115,1.458
		c0.95,1.163,1.758,2.194,2.655,3.397C98.668,20.629,99.15,20.886,98.919,20.281z"/>
	<path fill="#303030" d="M111.952,16.647c0.105-0.492,0.083-0.906-0.164-1.334c-0.135-0.191-0.211-0.113-0.246-0.033
		c-0.18,0.544-0.152,0.982,0.154,1.443C111.741,16.787,111.872,16.94,111.952,16.647z"/>
</g>
</svg>
