<?xml version="1.0" encoding="utf-8"?>
<!-- Generator: Adobe Illustrator 16.0.0, SVG Export Plug-In . SVG Version: 6.00 Build 0)  -->
<!DOCTYPE svg PUBLIC "-//W3C//DTD SVG 1.1//EN" "http://www.w3.org/Graphics/SVG/1.1/DTD/svg11.dtd">
<svg version="1.1" id="Layer_1" xmlns="http://www.w3.org/2000/svg" xmlns:xlink="http://www.w3.org/1999/xlink" x="0px" y="0px"
	 width="612px" height="792px" viewBox="0 0 612 792" enable-background="new 0 0 612 792" xml:space="preserve">
<path fill="#B3896D" d="M1.233,621.944V210.98l284.934,240.542V210.98l41.21-40.925l40.981,40.925v410.964L83.424,390.479v231.465
	H1.233z"/>
<path fill="#B3896D" d="M586.812,226.636c-15.892-15.895-35.88-23.952-59.407-23.952c-23.526,0-43.515,8.058-59.408,23.952
	c-15.893,15.895-23.953,35.884-23.953,59.409c0,23.457,8.057,43.425,23.947,59.351c15.893,15.934,35.885,24.008,59.414,24.008
	c23.527,0,43.516-8.058,59.407-23.95c15.895-15.894,23.954-35.88,23.954-59.409C610.766,262.52,602.706,242.531,586.812,226.636z
	 M562.986,286.044c0,10.96-3.266,19.814-9.988,27.074c-6.534,7.058-14.871,10.488-25.493,10.488c-10.755,0-19.158-3.43-25.694-10.49
	c-6.721-7.258-9.988-16.112-9.988-27.072c0-10.96,3.268-19.816,9.988-27.076c6.536-7.058,14.873-10.49,25.495-10.49
	c10.755,0,19.158,3.433,25.692,10.49C559.721,266.228,562.986,275.084,562.986,286.044z"/>
</svg>
